<?xml version="1.0" encoding="UTF-8"?>
<svg viewBox="0 0 406.63055 494.5741" xmlns="http://www.w3.org/2000/svg">
 <defs>
  <linearGradient id="d" x1="198.47" x2="351.69" gradientUnits="userSpaceOnUse">
   <stop stop-color="#5d6c53" offset="0"/>
   <stop stop-color="#10120e" offset="1"/>
  </linearGradient>
  <linearGradient id="c" x1="194.29" x2="346.43" y1="405.22" y2="558.79" gradientUnits="userSpaceOnUse">
   <stop stop-color="#3e4837" offset="0"/>
   <stop offset="1"/>
  </linearGradient>
  <linearGradient id="b" x1="161.43" x2="370" y1="375.93" y2="572.36" gradientUnits="userSpaceOnUse">
   <stop stop-color="#9dac93" offset="0"/>
   <stop stop-color="#3e4837" offset="1"/>
  </linearGradient>
  <linearGradient id="a" x1="217.21" x2="302.63" gradientUnits="userSpaceOnUse">
   <stop stop-color="#9dac93" offset="0"/>
   <stop stop-color="#5d6c53" offset="1"/>
  </linearGradient>
 </defs>
 <g transform="translate(-104.58 -193.25)">
  <path d="m306.46875,193.25c-26.08582.0185-54.02073,6.00601-74.25,9.53125-8.09329,1.41038-15.70669,4.71063-21.46875,10.0625s-9.5625,12.9437-9.5625,21.75c0,.97841.0733,1.94641.15625,2.875 .005.0604-.006.12737 0,.1875-.11933,2.81966-.15625,5.71281-.15625,8.9375 0,9.96966 5.7974,18.32479 13.4375,24l-.4375,6.1875v.0312c.0202-.4859-.73035,1.61371-2.71875,3.96875-.0231.0273-.0391.0351-.0625.0625-.43191.49035-.8312.9352-1.1875,1.3125a5.14629,5.14629 0 0,0 -.0625.0625c-.0671.0737-.22841.24565-.4375.46875l-.0625.0625c-3.25593,3.37729-7.6593,7.34644-11.59375,11.46875-3.95577,4.14465-7.68739,8.1908-8.9375,13.65625a5.14629,5.14629 0 0,0 -.125,1.03125 5.14629,5.14629 0 0,0 0,.0625c-.0737.30667-.12912.57914-.1875,1.0625l-2.78125,23.03125c-22.80205,7.0199-39.11987,26.87499-51.09375,48.78125-.036.0658-.0891.12167-.125.1875h.0312c-2.38335,3.97488-4.56183,8.00368-6.1875,11.625-1.25437,2.79421-2.61389,5.63648-3.3125,8.8125-.60107,2.73258-.41399,6.35084 1.5625,9.21875 1.90543,4.73345 5.22561,7.60952 7.15625,9.8125 2.00788,2.29111 2.51094,2.87364 2.125,4.90625-.55266,2.91062-.76954,2.6421-3.28125,3.6875-2.45239,1.02071-6.92701,2.08068-11.6875,5.1875-.11516.0752-.22828.10989-.34375.1875l.0312.0625c-1.4707.88182-2.76012,1.91375-3.84375,3.0625l-.125.125c-.0436.047-.11326.0778-.15625.125-.39428.37638-.82842.78223-1.3125,1.3125a5.14629,5.14629 0 0,0 -.4375.5625c-.61027.88936-1.06292,1.75811-1.5,2.625-.0313.0503-.0306.008-.0625.0625a5.14629,5.14629 0 0,0 -.125.25l-.0312.0625a5.14629,5.14629 0 0,0 -.0312.0312l-.0312.0625c-.61522,1.0723-1.18747,2.13542-1.71875,3.21875-1.59422,3.25074-2.48519,7.30809-3.40625,12.3125s-1.69201,10.78221-2.28125,16.53125-.98976,11.46258-1.15625,16.3125-.20896,8.58584.34375,11.59375c.6319,3.43888 1.11839,5.65926 2.03125,7.8125 .01.0661-.005.12754.0625.4375a5.14629,5.14629 0 0,0 .4375,1.1875c2.84259,5.72322 8.52551,6.97433 11.46875,8.0625 1.47162.54408 2.38821,1.06293 2.6875,1.34375s.41054.19413.46875,1.40625c.0706,1.46942.14781.91103-.78125,1.65625-.89496.71787-3.04096,1.76995-5.375,3.875l-.0313-.03115c-.0553.0454-.10151.10961-.15625.15625-.025.0232-.0374.0391-.0625.0625-3.55125,3.06948-5.87726,8.61265-4.6875,14.9375 .93268,4.95814 3.79319,14.39523 7.4375,24.25s7.54908,19.46415 12.40625,25.125c1.07155,1.24885 2.85985,3.84663 5.125,6.34375 2.00733,2.2129 4.59389,4.56789 8.25,5.5625 .0537.0146.10207.0485.15625.0625 5.19011,2.35747 10.19581,3.05075 13.34375,4 1.59077.47969 2.63981.98495 3.125,1.375s.61898.50056.8125,1.4375c.66489,3.21912-.007,4.2345-1.125,7.34375-1.08433,3.0163-2.2077,7.82725-.65625,13.8125h-.0312c.0172.0998.0339.44302.15625,1.09375 .90568,4.81463 3.88714,8.08487 7.59375,12.1875s8.37299,8.47111 13.15625,12.625c.58885.51152.63238.53322.125.0937 2.80621,2.4336 5.66644,4.82777 8.40625,7 .49254.3905.91839.71634 1.28125,1 .22178.1736.50698.41671.9375.75 1.18385.91537 2.35287,1.79996 3.46875,2.625l.8125.59375c1.46286,1.06779 2.84874,2.03349 4.0625,2.84375 3.48897,2.32909 7.9466,6.18199 13.9375,8.375 2.16122.79113 4.65791,1.19929 7.78125,1.65625s6.52572.82446 9.53125.78125c.36315-.005.8469-.0168 1.5-.0625a5.14629,5.14629 0 0,0 .0312,0c1.49032-.10512 2.82045-.1625 4.6875-1.21875 1.09782-.62109 2.33545-1.45391 3.4375-2.875 .67219-.86679 1.15354-2.03636 1.46875-3.28125 1.47727,1.52023 3.0926,3.26906 4.8125,4.84375 1.82009,1.66642 3.35593,3.54512 7.125,3.96875 2.08299.23412 7.18137.59323 12.5.75 2.65931.0784 5.33198.11688 7.65625,0s3.75993.25002 6.6875-1.40625c.34301-.19406.68912-.38894 1.03125-.59375 2.19825-1.31591 5.57119-3.55785 7.75-7.59375l.0312.0312c.92374-1.31528 1.63724-2.22421 1.96875-2.5 .0663-.0552.0692-.002.0937-.0312 .0926.18621-.0399-.038.125.34375 .86309,1.99776 3.39252,5.7832 8.125,8.0625 .16318.12203-.19654-.15304.0625.0312 .18058.12828.37722.1715.5625.28125 .14066.0606.23052.16103.375.21875a5.14629,5.14629 0 0,0 .0312.0312c.99774.51235 2.0396.86081 3,.96875-.0543-.006-.008-.0138.34375.0312a5.14629,5.14629 0 0,0 .1875.0312c.88891.0808.90854.0805.0312,0v-.0625c.75429.19 1.5537.2789 2.40625.34375l-.0312.0937a5.14629,5.14629 0 0,0 .15625.0312c1.55826.27015 3.62428.53966 6.09375.25 7.20214-.84481 12.66559-5.70156 16-8.0625 .58685-.41552 1.21599-.93013 1.8125-1.375 .67939,1.06076 1.55753,2.13712 2.84375,2.90625 2.17014,1.2977 4.67422,1.69066 7.625,1.59375 5.78827-.1901 11.53584-2.89197 17.6875-6.65625s12.58037-8.76293 18.53125-14.3125 11.42964-11.63177 15.65625-17.59375 7.34372-11.69443 7.96875-17.59375c.30176-2.84814-.59339-5.70658-1.875-7.53125s-2.57342-2.76028-3.28125-3.4375-.8385-.91882-.9375-1.21875-.28572-1.01661.21875-2.96875c.34801-1.34669.62384-1.52698 1.59375-2.09375s2.8421-1.14342 5.3125-1.65625c4.94079-1.02567 12.22446-1.88334 18.53125-7.125a5.14629,5.14629 0 0,0 .46875-.4375c5.94748-6.28507 11.44062-16.19953 15.75-26.75s7.37245-21.44063 7.09375-30.34375c-.13549-4.32814-1.3735-7.88463-3.375-10.40625s-4.43905-3.78561-6.09375-4.625-2.46342-1.35413-2.5625-1.46875-.3109.004-.125-1.9375c.17352-1.81251.50255-2.04345.96875-2.4375s1.5324-.87467 3.1875-1.3125 3.76129-.78792 6.125-1.78125 5.21652-3.18116 6.375-6.5c2.99423-8.57789 2.72215-21.36622 1.8125-34.25s-2.65558-25.01284-4.5625-31.40625c-2.22664-7.46534-8.6337-10.61721-13.0625-12.75s-7.07844-3.34597-8.46875-7.15625c-.8293-2.27276-.68772-3.0635-.65625-3.1875s.0542-.24955.90625-1.15625 2.46622-2.43091 3.5625-4.90625 1.46828-5.62482.90625-9.25c-1.67086-10.77728-8.04073-24.97216-15.71875-38.125s-16.03501-24.8577-24.8125-30a5.14629,5.14629 0 0,0 -.53125-.28125c-5.13103-2.24697-10.11671-3.60368-14.96875-4.8125l-.5625-3.84375c12.1864-10.23656 20.03125-24.66177 20.03125-40.75 0-4.94383-.81992-9.72583-2.1875-14.3125 6.77544.46311 13.41702.92088 17.6875,1.1875 11.4061,19.83714 22.1933,47.52189 31.65625,78.28125h-.0312c.60255,2.00883 1.22367,3.9402 1.78125,5.84375a5.14629,5.14629 0 0,0 0,.0312c.0531.17736.15415.5581.3125,1.09375 .003.01-.003.0217 0,.0312 8.09878,27.77382 15.32216,57.07018 21.375,84.71875 11.55404,53.82332 18.71501,102.66697 19.9375,121.5 .1242,1.91343.53477,2.66295.96875,3.90625s.93355,2.58442 1.4375,3.875 1.01577,2.52878 1.34375,3.4375c.15952.44197.28782.80967.34375,1 .002.005-.001.0262 0,.0312a5.14629,5.14629 0 0,0 2.4375,3.78125c0,0 1.60392.88992 3.4375,1.09375s4.35771-.15606 6.65625-1.625c4.59708-2.93787 8.02855-8.9324 10.59375-21.1875 1.33438-6.37492.46945-16.36246-1.40625-31.40625s-5.07528-34.38593-9.4375-56.3125c-8.71371-43.79916-22.10423-97.9067-39.15625-148.25-.0137-.0404-.0176-.0846-.0312-.125a5.14629,5.14629 0 0,0 0-.0312c-.0398-.12277-.098-.31811-.1875-.59375a5.14629,5.14629 0 0,0 -.0312-.0625c-.27391-.8062-.54125-1.58403-.8125-2.375h-.0312c-3.83128-11.69313-7.80671-23.2701-12.03125-34.5-.76136-2.02384-1.50076-4.01186-2.28125-6.03125-8.54726-22.11747-17.85218-42.82353-27.8125-60.75-.3841-.69131-.74207-1.31405-1.0625-1.9375-.0301-.0585-.0717-.21012-.1875-.4375-.24579-.48306-.51007-.99011-.78125-1.53125l-.4375-.875c-.20222-.40025-.39986-.78364-.59375-1.15625-.24347-.46768-.4855-.8892-.71875-1.3125-1.08978-1.97838-2.41031-4.10125-4.21875-6.21875-.27713-.32477-.38424-.45221-.34375-.40625a5.14629,5.14629 0 0,0 -.0312,0c-.15027-.17018-.3716-.38353-.625-.65625-.006-.007.007-.0242 0-.0312h.0312c-.16366-.17582-.37092-.39693-.625-.65625l-.4375-.4375c-.26747-.26366-.62104-.58904-1-.9375-1.45374-1.33606-3.11508-2.68782-5.09375-4.0625a5.14629,5.14629 0 0,0 -2.125-.875c-29.57545-4.74943-62.45168-6.8026-92.625-6.78125zm37.96875,78.0625c8.29937.82575 17.35255,1.59612 26.8125,2.3125 .61308,1.20295 1.14364,2.40192 1.59375,3.59375 .003.009.0359.13065.125.375 .88339,2.42327 1.52274,4.94198 1.84375,7.53125h-.0312c.10266.89831.12319.93553.0312.15625 .15138,1.27259.21875,2.61692.21875,4.03125 0,1.36518-.0531,2.6574-.1875,3.84375a5.14629,5.14629 0 0,0 0,.0312c.0523-.4656.0363-.41101-.0312.15625a5.14629,5.14629 0 0,0 0,.0937c-.10058,1.02593-.0986,1.03678 0,.0312-.23702,1.91223-.658,3.79679-1.21875,5.65625a5.14629,5.14629 0 0,0 0,.0312c-.38375,1.26911-.80098,2.49555-1.3125,3.6875-.0535.12521-.22123.46644-.46875,1-.17549.3772-.32437.64733-.40625.8125a5.14629,5.14629 0 0,0 -.0312.125c-.006.0135.006.0178 0,.0312a5.14629,5.14629 0 0,0 -.0312.0312c-.006.0134.006.018 0,.0312-.2627.52082-.5517,1.04537-.84375,1.5625-.26665.47241-.64594.90945-.9375,1.375-.98856-4.69459-3.93802-8.1624-7.0625-11.3125-3.13834-3.16408-6.67888-6.04591-9.75-8.8125-4.51385-4.34212-7.47635-8.40438-7.75-11.0625l-.5625-5.3125zm29.125,28.0625c-.27175,1.17122-.12635,1.95905-.125,1.96875s-.20415-.69566.125-1.96875zm-2.40625,6.21875c-.40605,1.41336-.1893,2.2399-.1875,2.25s-.24083-.81291.1875-2.25z"/>
  <path d="m310.46 210.41c-25.293 0.0179-74.165-3.2145-91.531 6.4008-12.909 7.1477-12.575 15.009-12.575 29.786s15.979 26.756 30.757 26.756 26.757-11.978 26.757-26.756c0-0.93469-0.0402-1.8325-0.13379-2.7424 11.013-2.3552 26.747-5.005 43.715-6.7558 5.6194 16.314 9.4481 22.134 13.713 25.451 4.2002 3.2666 71.24 7.5332 90.373 8.6955 43.573 73.22 74.183 253.62 76.941 296.1 0.13449 2.072 4.0862 10.6 4.067 11.954 0 0 8.1121 4.8824 12.977-18.361s-31.63-222.22-88.667-324.88c-3.8684-6.9624-4.9788-12.257-14.583-18.93-29.214-4.6914-61.875-6.7435-91.811-6.7223z" fill="#1c241c"/>
  <path d="m188.21 357.98 5.7143-47.316c1.2297-10.182 24.868-25.888 25.407-33.514l2.9881-42.271c1.4166-20.039 111.47-16.933 113.29 0.76443l4.273 41.506c1.2562 12.203 23.196 22.06 24.867 33.514l7.2124 49.436c5.618 38.507-178.04 35.608-178.04-2.8339h3e-5l-5.7143 0.71429z" fill="#5d6c53"/>
  <path d="m194.59 308.22c-0.34046 0.84007-0.59314 1.6562-0.6875 2.4375l-5.6875 47.312 5.6875-0.6875c0 3.6782 1.714 7.009 4.75 10.031h171.97c1.2193-2.2158 1.7214-4.6306 1.3438-7.2188l-7.2188-49.438c-0.11974-0.82072-0.36898-1.6322-0.6875-2.4375-57.348-14.595-113.44-7.8568-169.47 0z" fill="url(#d)" opacity=".5"/>
  <path d="m131.43 400.58c-4.0704 14.582 11.806 16.334 9.8214 26.786s-12.532 5.9181-21.964 16.25c-8.3244 12.131-10.071 53.965-7.1428 67.321 3.3405 6.7256 14.739 3.7048 15.179 12.857s-12.062 5.9363-10.536 18.036c1.6831 13.343 14.331 46.365 24.821 56.429 9.4411 7.9607 23.229 4.1316 25.179 13.571s-5.517 11.066-1.25 23.036c6.7839 12.183 55.971 52.459 69.643 44.464 3.2724-1.9136 2.1967-6.8012 4.8214-7.6786 6.8081-1.2404 9.8231 6.5379 15 9.2857 5.426 2.0977 17.622 2.2211 24.286 0s6.9215-10.956 13.393-10.536c6.1157 0.3972 1.2795 6.6434 12.143 10 2.9249 0.90375 2.4637 0.85165 8.8563-0.11895 3.0125-0.45739 14.809-10.977 18.781-10.671 4.1382 0.31818-0.35394 6.9179 9.1071 6.6071 16.238-0.5333 53.061-34.527 54.863-51.531 0.75742-7.1489-8.407-5.473-5.7143-15.893 2.6381-10.208 17.196-5.3042 27.143-13.571 10.225-10.805 21.896-38.466 21.429-53.393-0.44384-14.178-13.232-7.7269-12.143-19.107s14.509-6.1803 16.964-13.214c4.651-13.324 0.35747-51.722-2.8571-62.5s-17.279-8.2719-21.429-19.643 6.2796-7.7549 4.4643-19.464c-2.9089-18.763-24.603-56.595-38.036-64.464-10.734-4.7005-21.546-5.6736-32.216-9.4349-17.361-6.1201-52.702-2.965-57.536-5.2995-14.987-7.237-47.89-4.8929-71.446 4.73-8.178 3.3408-21.303 1.3381-29.663 2.5764-30.446 4.5097-50.466 34.353-63.961 64.571z" fill="url(#c)"/>
  <path d="m268.25 327.78c-10.634-0.038-23.345 1.1316-27.344 2.3125-6.3979 1.8894-9.3155 4.9293-11.094 7.5938-6.3274 9.4808-18.031 33.319-17.188 45.438s3.7519 12.611 7.5938 12.625c13.697 0.0516 59.883-3.233 72.219-3.0312 9.0415 0.14785 12.073-5.0104 12.625-9.5938 1.231-10.226-6.7037-35.777-11.094-45.938-2.578-5.9668-4.042-4.566-11.125-7.75-2.5744-1.1572-8.2131-1.6334-14.594-1.6562zm60.188 6.375c-5.4034 0.16684-9.6452 4.119-8.5 6.0938 5.6642 9.7666 15.097 35.237 17.469 45.906 2.0229 9.1 9.6063 11.464 15.125 12.125 12.423 1.4888 33.823 8.5651 44.969 10.094 3.3736 0.46271 6.2746-2.2714 4.5312-8.0625-3.8539-12.802-24.955-44.866-34.344-56.062-2.9726-3.5451-5.6265-4.5945-11.094-6.5625-6.5237-2.3483-21.154-3.1144-27.062-3.5-0.36928-0.0241-0.73352-0.0424-1.0938-0.0312zm-133.25 7.5312c-10.034 0.54539-25.982 10.026-33.062 14.688-3.877 2.5522-8.0748 8.1972-11.094 11.594-5.4257 6.1043-13.642 18.768-17.688 27.781-3.336 7.4314-6.3249 14.138 3.0312 15.656 7.6434 1.2406 29.273-3.7389 40.406-6.5625 3.8119-0.96679 10.818-5.02 14.656-14.625 3.0168-7.5498 12.498-25.944 16.656-37.906 2.3968-6.8944 0.19079-7.6422-9-10.25-1.1488-0.32598-2.4729-0.45291-3.9062-0.375zm98.906 75.938c-20.666 0.0197-69.879 2.2511-82.969 4.4062-7.0902 1.1674-8.7189 5.8739-10.094 10.594-3.442 11.817-7.5354 47.449-3.5312 59.094 1.9267 5.603 2.869 11.219 9.5938 11.125 19.001-0.26545 80.878-2.5223 96.469-2.5312 8.5198-5e-3 12.674-1.5637 12.625-8.5938-0.0904-12.943-0.3992-44.698-2.5312-61.094-0.89091-6.8512-5.1813-11.111-10.625-12.625-0.93311-0.25951-4.1685-0.37954-8.9375-0.375zm62 4.9062c-6.0628 0.12391-9.0774 5.0527-9.0938 11.625-0.0289 11.689 4.346 45.695 4.5312 58.062 0.079 5.2713 3.3637 12.601 13.625 13.156 9.839 0.53283 34.305 3.0131 42.438 5.0312 6.8511 1.7003 7.9586-4.5193 9.5938-11.594 2.6349-11.4 0.0836-43.054-3.0312-55.062-1.7341-6.6854-3.8933-10.123-14.125-13.125-8.3659-2.4542-33.065-8.316-43.938-8.0938zm-182.34 6.5625c-9.8134 0.31977-38.044 7.1406-47.469 9.5938-5.2306 1.3615-8.0116 6.3156-10.125 10.625-4.3329 8.8351-7.5232 45.582-6.0625 53.531s2.0165 8.9976 5.0625 9.5938c8.3961 1.6432 42.741-4.192 52.531-6.5625 4.7288-1.145 6.818-5.2578 6.5625-9.5938-0.49007-8.3182 4.1894-48.854 6.0625-57.594 1.0985-5.1257-4.0389-9.676-6.5625-9.5938zm93.188 94.719c-23.422 0.15297-49.558 0.99561-54.812 1.75-4.4215 0.63483-14.204 6.2638-12.625 14.656 1.5566 8.2749 3.8488 42.02 11.125 50.5 3.0059 3.5032 7.2317 8.6722 12.625 8.5938 8.053-0.11708 63.089-0.0934 70.719 0 4.6011 0.0564 13.374-0.12245 15.656-10.625 2.5119-11.562 8.5936-44.246 4.0312-54.531-3.0828-6.9496-4.0603-7.977-8.0938-9.0938-3.8363-1.0621-20.408-1.369-38.625-1.25zm105.97 2.3125c-3.3766-8e-3 -6.4148 0.10222-8.75 0.4375-4.4215 0.63483-17.281 8.6649-17.156 16.188 0.13277 8.0108-8.8786 36.99-8.5938 46.469 0.13866 4.614 5.2005 11.172 10.594 11.094 8.053-0.11708 22.683-0.0934 30.312 0 4.6011 0.0564 9.675-0.57026 14.656-10.094 6.0475-11.562 15.365-36.861 17.156-47.969 0.95777-5.9394-2.0088-13.545-8.0625-14.156-6.7893-0.68594-20.026-1.9455-30.156-1.9688zm-212.28 1.9688c-18.201 1.2399-26.771 1.7493-35.875 3.0312-4.4232 0.62283-10.172 4.2326-8.5938 12.625 1.5566 8.2749 11.411 38.489 18.688 46.969 3.0059 3.5032 7.2317 10.703 12.625 10.625 8.053-0.11708 26.714-1.1247 34.344-1.0312 4.6011 0.0564 8.5088 0.11479 7.5938-10.594-0.98795-11.562-7.6782-37.715-12.125-48-3.0172-6.9783-9.4407-14.117-16.656-13.625zm17.719 92.094c-2.5513 4.5e-4 -5.1196 0.20279-9.6562 0.84375-4.4229 0.62489-5.1099 4.7326-3.5312 13.125 1.5566 8.2749 26.813 29.158 37.625 36.375 3.8392 2.5629 8.0205 6.0355 12.875 7.8125 3.2408 1.1863 16.389 3.1323 19.219 1.5312 2.2467-1.2711 4.0256-3.3574 1.25-7.3438-8.5737-12.314-23.848-33.153-30.062-43.438-3.9318-6.507-10.959-8.3389-18.188-8.5625-4.451-0.13767-6.98-0.3442-9.5312-0.34375zm171.28 0.59375c-3.9214-0.0308-7.8696 0.20279-12.406 0.84375-4.4229 0.62489-10.031 4.3216-14.656 11.5-4.872 7.5606-15.64 27.912-20.062 40.469-1.5336 4.3539-0.0166 6.6132 2.3125 6.875 3.4295 0.38546 4.8019 1.0976 8.0312 0.71875 4.7467-0.55679 10.14-4.6572 13.625-7.125 14.319-10.139 35.937-31.725 42.219-44.656 1.7627-3.6287-1.0676-7.4614-6.7812-7.9375-4.4378-0.3698-8.3598-0.65669-12.281-0.6875zm-87.656 1.25c-12.404 0.0585-24.838 0.39029-29.375 1.0312-4.4229 0.62489-8.3912 5.2326-6.8125 13.625 1.5566 8.2749 11.146 28.64 19.938 37.625 3.2283 3.2994 6.7647 7.3007 9.0938 7.5625 3.4295 0.38546 20.92 1.601 23.75 0 2.2467-1.2711 6.3171-3.7277 7.5625-7.8125 3.9622-12.996 15.558-32.077 13.625-43.938-0.64882-3.9816-2.8489-7.1176-8.5625-7.5938-4.4378-0.3698-16.815-0.55848-29.219-0.5z" fill="url(#b)"/>
  <path d="m306.46 198.41c-25.293 0.0179-52.952 5.8769-73.349 9.4313-14.537 2.5333-26.757 11.978-26.757 26.756s11.979 26.756 26.757 26.756 26.757-11.978 26.757-26.756c0-0.93469-0.0402-1.8325-0.13379-2.7424 11.013-2.3552 26.747-5.005 43.715-6.7558 5.6194 16.314 9.4481 22.134 13.713 25.451 4.2002 3.2666 71.24 7.5332 90.373 8.6955 45.698 76.791 81.42 278.95 81.008 308.06 0 0 8.1121 4.8824 12.977-18.361s-31.63-222.22-88.667-324.88c-3.8684-6.9624-4.9788-12.257-14.583-18.93-29.214-4.6914-61.875-6.7435-91.811-6.7223z" fill="#3e4837"/>
  <path transform="matrix(1.0703 0 0 1.0702 -11.501 1.5974)" d="m237.39 218.23a7.8287 7.8287 0 1 1 -15.657 0 7.8287 7.8287 0 1 1 15.657 0z" fill="#1c241c"/>
  <path d="m217.86 280.95c-5.0606 7.778-21.733 19.434-23.714 28.093 56.318-9.2305 112.77-15.966 170.41 0-1.8877-9.6705-19.912-18.114-23.881-28.093-44.535-12.585-83.505-5.695-122.82 0z" fill="url(#a)"/>
  <path d="m402.66 208.59c4.0558 4.3846 5.4224 8.4922 8.1875 13.469 57.038 102.66 93.553 301.63 88.688 324.88-3.3725 16.112-8.3219 18.704-11.031 18.781 0.0106 0.52623 0.0376 1.1477 0.0312 1.5938 0 0 8.1348 4.8683 13-18.375s-31.65-222.22-88.688-324.88c-3.176-5.7161-4.503-10.316-10.188-15.469zm-99.219 14.5c-16.968 1.7507-34.705 4.3948-45.719 6.75 0.0936 0.90998 0.15625 1.8153 0.15625 2.75 0 14.777-12.003 26.75-26.781 26.75-6.8323 0-13.053-2.5367-17.781-6.75 4.8946 5.3849 11.93 8.75 19.781 8.75 14.778 0 26.781-11.973 26.781-26.75 0-0.93469-0.0627-1.84-0.15625-2.75 10.746-2.298 28.005-4.8436 44.5-6.5938-0.26014-0.73129-0.5132-1.3781-0.78125-2.1562zm10.938 24.812c0.91937 1.0565 1.8434 1.9268 2.7812 2.6562 4.1576 3.2335 71.611 7.4126 91.5 8.625-0.37451-0.64842-0.74912-1.3059-1.125-1.9375-19.133-1.1623-88.175-5.4209-92.375-8.6875-0.26657-0.20732-0.51755-0.42743-0.78125-0.65625z" fill="#1c241c"/>
  <path transform="matrix(1.0703 0 0 1.0702 -12.89 -1.2381)" d="m323.25 217.47a5.5558 5.5558 0 1 1 -11.112 0 5.5558 5.5558 0 1 1 11.112 0z" fill="#1f241c"/>
  <path d="m327.12 237.6c-33.438 0-60.522 23.155-60.522 51.709s27.084 51.709 60.522 51.709 60.552-23.155 60.552-51.709-27.115-51.709-60.552-51.709zm0 6.3978c29.31 0 53.091 20.282 53.091 45.312s-23.782 45.312-53.091 45.312-53.061-20.282-53.061-45.312 23.751-45.312 53.061-45.312z" fill="#1c241c"/>
  <path d="m327.13 237.6c-33.438 0-60.531 23.167-60.531 51.722 0 13.906 6.423 26.522 16.875 35.815 10.847 8.7897 25.52 14.171 41.656 14.171 33.438 0 60.531-23.14 60.531-51.695 0-13.848-6.3669-26.426-16.75-35.709-10.869-8.8589-25.573-14.305-41.781-14.305zm-2 4.6971c15.165 0 28.823 5.4374 38.5 14.145 10.204 8.2568 16.562 19.93 16.562 32.88 0 25.029-23.753 45.29-53.062 45.29-15.165 0-28.831-5.4374-38.5-14.145-10.196-8.2568-16.562-19.903-16.562-32.853 0-25.029 23.753-45.316 53.062-45.316z" fill="#9dac93"/>
  <path d="m326.85 227.88h0.56806a4.0406 4.0406 0 0 1 4.0406 4.0406v13.54a4.0406 4.0406 0 0 1 -4.0406 4.0406h-0.56806a4.0406 4.0406 0 0 1 -4.0406 -4.0406v-13.54a4.0406 4.0406 0 0 1 4.0406 -4.0406" fill="#9dac93"/>
  <path d="m329.07 228.22c0.23966 0.51724 0.375 1.078 0.375 1.6875v13.562c0 2.2385-1.7928 4.0312-4.0312 4.0312h-0.5625c-0.59973 0-1.1454-0.14256-1.6562-0.375 0.63515 1.3958 2.0175 2.375 3.6562 2.375h0.5625c2.2385 0 4.0312-1.7928 4.0312-4.0312v-13.562c0-1.653-0.95951-3.0604-2.375-3.6875z" fill="#1f241c"/>
  <path d="m382.38 364.62c0.98595 10.696 1.4688 21.595 1.4688 32.656 0 2.7293-0.0323 5.4473-0.0937 8.1562 5.2279 1.3147 10.067 2.4324 13.75 2.9375 3.3736 0.46271 6.2746-2.2714 4.5312-8.0625-2.3434-7.7841-11.07-22.681-19.656-35.688zm0.28125 61.75c-2.2893 27.951-7.8168 54.554-16.094 79.094 10.533 0.65957 33.231 3.0016 41.031 4.9375 6.8511 1.7003 7.9586-4.5193 9.5938-11.594 2.6349-11.4 0.0836-43.054-3.0312-55.062-1.7341-6.6854-3.8933-10.123-14.125-13.125-3.5767-1.0493-10.184-2.6968-17.375-4.25zm-9.75 99.75c-3.3766-8e-3 -6.4148 0.10222-8.75 0.4375-1.5683 0.22517-4.202 1.3917-6.9375 3.125-3.6419 8.3405-7.6224 16.393-11.906 24.094-2.5578 11.928-7.1104 28.646-6.9062 35.438 0.13866 4.614 5.2005 11.172 10.594 11.094 8.053-0.11708 22.683-0.0934 30.312 0 4.6011 0.0564 9.675-0.57026 14.656-10.094 6.0475-11.562 15.365-36.861 17.156-47.969 0.95777-5.9394-2.0088-13.545-8.0625-14.156-6.7893-0.68594-20.026-1.9455-30.156-1.9688zm-23.281 94.656c-3.9214-0.0308-7.8696 0.20279-12.406 0.84375-4.4229 0.62489-10.031 4.3216-14.656 11.5-4.872 7.5606-15.64 27.912-20.062 40.469-1.5336 4.3539-0.0166 6.6132 2.3125 6.875 3.4295 0.38546 4.8019 1.0976 8.0312 0.71875 4.7467-0.55679 10.14-4.6572 13.625-7.125 14.319-10.139 35.937-31.725 42.219-44.656 1.7627-3.6287-1.0676-7.4614-6.7812-7.9375-4.4378-0.3698-8.3598-0.65669-12.281-0.6875zm-61.531 1.5625c-17.436 13.608-36.598 23.549-56.938 29.062 3.9275 8.3935 9.3834 17.613 14.562 22.906 3.2283 3.2994 6.7647 7.3007 9.0938 7.5625 3.4295 0.38546 20.92 1.601 23.75 0 2.2467-1.2711 6.3171-3.7277 7.5625-7.8125 3.9622-12.996 15.558-32.077 13.625-43.938-0.64882-3.9816-2.8489-7.1176-8.5625-7.5938-0.77674-0.0647-1.873-0.13423-3.0938-0.1875zm-65.469 31.125c-9.3505 1.9318-18.942 2.9062-28.688 2.9062-3.2671 0-6.4921-0.12131-9.7188-0.34375 6.8504 5.949 13.993 11.45 18.562 14.5 3.8392 2.5629 8.0205 6.0355 12.875 7.8125 3.2408 1.1863 16.389 3.1323 19.219 1.5312 2.2467-1.2711 4.0256-3.3574 1.25-7.3438-3.6761-5.2797-8.6025-12.152-13.5-19.062z" fill="#30372a"/>
 </g>
</svg>
