<?xml version="1.0" encoding="utf-8"?>
<!-- Generator: Adobe Illustrator 16.0.3, SVG Export Plug-In . SVG Version: 6.00 Build 0)  -->
<!DOCTYPE svg PUBLIC "-//W3C//DTD SVG 1.1//EN" "http://www.w3.org/Graphics/SVG/1.1/DTD/svg11.dtd">
<svg version="1.1" id="Warstwa_1" xmlns="http://www.w3.org/2000/svg" xmlns:xlink="http://www.w3.org/1999/xlink" x="0px" y="0px"
	 width="911px" height="451px" viewBox="0 0 911 451" enable-background="new 0 0 911 451" xml:space="preserve">
<g>
	<defs>
		<rect id="SVGID_1_" x="-1097" y="-1959.732" width="4389.043" height="3005.732"/>
	</defs>
	<clipPath id="SVGID_2_">
		<use xlink:href="#SVGID_1_"  overflow="visible"/>
	</clipPath>
	<path clip-path="url(#SVGID_2_)" d="M2680.602-798.237c-1.194,0.098-2.413,0.154-3.641,0.155
		C2678.188-798.083,2679.407-798.139,2680.602-798.237"/>
	<path clip-path="url(#SVGID_2_)" fill="#383839" d="M372.88,408.396c-13.129,26.239-74.023,22.501-74.023,22.501
		c-19.594,4.244-47.693,13.165-59.666-0.036c-1.228-1.318-2.275-2.87-3.124-4.658c-9.373-19.686,35.612-17.807,42.167-21.544
		c6.555-3.758,28.966-34.349,30.917-42.167c3.25-12.985-8.94-64.506-12.281-88.489c-0.524-3.739-0.83-6.826-0.83-8.975
		c0-15.929,40.289-39.368,67.467-5.635C390.687,293.145,385.99,382.157,372.88,408.396"/>
	<path clip-path="url(#SVGID_2_)" d="M370.771,408.262c-8.582,16.536-32.537,19.548-49.084,20.847
		c-6.548,0.512-13.132,0.687-19.698,0.47c-7.663-0.253-15.493,2.901-22.965,4.432c-11.182,2.294-27.529,5.685-36.849-3.142
		c-2.934-2.779-6.167-7.7-4.839-12.002c0.925-2.998,3.876-4.679,6.588-5.829c7.492-3.176,16.011-3.818,23.994-4.883
		c5.8-0.774,10.824-1.299,15.175-5.482c6.91-6.64,12.686-14.77,18.127-22.618c4.003-5.771,9.706-12.715,10.551-19.956
		c1.009-8.647-0.781-17.905-2.083-26.424c-1.862-12.191-4.21-24.307-6.47-36.431c-1.027-5.511-2.051-11.023-2.975-16.553
		c-0.881-5.279-2.265-11.015-1.939-16.369c0.474-7.783,8.321-13.742,14.726-16.859c9.909-4.818,21.541-5.188,31.62-0.637
		c10.73,4.846,18.752,14.322,23.803,24.761c9.659,19.966,12.163,43.456,12.596,65.362c0.404,20.418-0.86,41.771-6.598,61.481
		C373.471,401.796,372.319,405.113,370.771,408.262c-1.021,2.08,3.479,1.771,4.218,0.267c3.636-7.399,5.527-15.65,7-23.712
		c2.059-11.27,3.096-22.732,3.471-34.173c0.778-23.673-0.764-48.56-8.717-71.053c-7.596-21.482-24.836-40.735-49.487-38.707
		c-9.485,0.781-19.019,4.641-26.076,11.083c-2.721,2.483-5.16,5.481-6.489,8.949c-1.744,4.554-0.629,9.728,0.038,14.393
		c3.468,24.239,9.703,48.069,12.166,72.462c0.426,4.213,0.864,8.573,0.37,12.801c-0.385,3.299-1.979,6.1-3.629,8.936
		c-5.483,9.428-12.085,18.424-19.158,26.716c-2.052,2.406-4.535,5.982-7.39,7.467c-2.375,1.233-5.749,1.27-8.34,1.617
		c-8.56,1.149-17.409,1.994-25.536,5.104c-5.986,2.291-12.25,6.804-10.281,14.041c3.175,11.673,15.999,14.927,26.579,14.754
		c6.62-0.108,13.177-1.193,19.653-2.502c3.466-0.701,6.915-1.492,10.358-2.295c2.618-0.61,6.5-1.912,8.531-2.093
		c2.663-0.239,5.421-0.13,8.173-0.022c2.039,0.08,4.074,0.16,6.065,0.101c18.135-0.558,39.815-2.671,54.589-14.299
		c3.335-2.625,6.15-5.788,8.11-9.566C376.051,406.483,371.543,406.775,370.771,408.262"/>
	<path clip-path="url(#SVGID_2_)" d="M278.029,406.277c6.879-0.617,13.878-1.096,20.742-0.713c1.483,0.083,2.968,0.201,4.436,0.429
		c0.349,0.054,0.696,0.138,1.046,0.186c0.052,0.008-0.027-0.014-0.117-0.037c-0.141-0.035-0.306-0.068-0.024,0.009
		c1.069,0.304,2.434,0.048,3.168-0.85c0.625-0.759,0.463-1.855-0.576-2.149c-2.048-0.577-4.264-0.7-6.374-0.819
		c-7.293-0.405-14.632,0.041-21.895,0.693c-0.969,0.088-2.354,0.686-2.472,1.802C275.845,405.936,277.151,406.356,278.029,406.277"
		/>
	<path clip-path="url(#SVGID_2_)" fill="#2E2D2C" d="M325.114,304.146c0.045,1.866,0.177,3.725,0.45,5.522
		c0.331,2.162,0.86,4.233,1.677,6.12l0.008,0.017c0.007,0.016,0.013,0.029,0.019,0.044c0.006,0.013,0.011,0.025,0.016,0.036
		c0.012,0.028,0.023,0.054,0.035,0.08c0.004,0.009,0.008,0.019,0.012,0.028c0.492,1.193-1.826,1.938-2.499,2.036
		c-0.334,0.048-0.677,0.065-1.022,0.065c-0.501,0-1.005-0.038-1.492-0.076c-5.576-0.436-11.081-2.63-16.164-5.042
		c1.265,6.885,2.478,13.777,3.535,20.696c1.301,8.519,3.092,17.777,2.082,26.424c-0.845,7.241-6.548,14.185-10.551,19.956
		c-5.432,7.835-11.197,15.951-18.093,22.586c3.795-0.277,7.604-0.463,11.408-0.463c0.345,0,0.688,0.002,1.033,0.005
		c4.569-5.401,18.886-22.79,22.017-32.196c3.756-11.251,8.433-28.587,4.225-44.046c0,0,15.928,12.641,26.709,16.396
		c1.436,0.498,2.837,0.73,4.188,0.73c2.818,0,5.408-1.013,7.602-2.735c-0.966-4.376-2.352-8.602-4.275-12.524
		c0.06,1.056,0.172,2.106,0.342,3.149c0.002,0.006,0.003,0.013,0.004,0.02c0.197,1.324-1.566,2.061-2.849,2.061
		c-0.271,0-0.52-0.034-0.725-0.101c-11.649-3.792-20.247-14.296-26.062-25.489C326.174,306.351,325.631,305.25,325.114,304.146"/>
	<path clip-path="url(#SVGID_2_)" d="M303.563,311.718c3.924,21.281,7.54,42.977,5.588,50.772
		c-1.76,7.057-20.187,32.665-28.582,40.35c0.852-0.07,1.704-0.138,2.558-0.199c6.895-6.636,12.661-14.751,18.093-22.586
		c4.003-5.773,9.706-12.716,10.551-19.956c1.009-8.648-0.781-17.906-2.083-26.425c-1.056-6.919-2.27-13.812-3.534-20.695
		c-0.812-0.386-1.612-0.776-2.401-1.165C303.69,311.781,303.626,311.749,303.563,311.718"/>
	<path clip-path="url(#SVGID_2_)" fill="#2E2D2C" d="M283.478,405.832c-1.821,0.131-3.64,0.282-5.449,0.445
		c-0.069,0.006-0.14,0.009-0.213,0.009c-0.143,0-0.293-0.012-0.443-0.036c-2.897,1.079-6.041,1.448-9.455,1.903
		c-7.983,1.066-16.503,1.707-23.994,4.884c-2.712,1.149-5.663,2.831-6.588,5.829c-0.957,3.103,0.456,6.525,2.419,9.236
		C243.076,419.495,260.681,410.83,283.478,405.832"/>
	<path clip-path="url(#SVGID_2_)" d="M276.061,405.438c-11.028,2.797-48.64,2.605-39.994,20.765c0.849,1.788,1.896,3.34,3.124,4.658
		c0.017-0.915,0.209-1.836,0.564-2.759c-1.963-2.711-3.376-6.134-2.419-9.234c0.925-2.998,3.876-4.681,6.588-5.829
		c7.491-3.177,16.011-3.819,23.994-4.884c3.414-0.455,6.558-0.824,9.455-1.904C276.828,406.159,276.284,405.899,276.061,405.438"/>
	<path clip-path="url(#SVGID_2_)" d="M294.535,402.177c-3.805,0-7.613,0.186-11.408,0.464c-0.854,0.062-1.706,0.129-2.558,0.199
		c-0.907,0.83-1.696,1.451-2.335,1.817c-0.508,0.29-1.246,0.545-2.173,0.781c0.223,0.461,0.767,0.72,1.312,0.811
		c0.15,0.026,0.3,0.037,0.443,0.037c0.073,0,0.144-0.003,0.213-0.008c1.809-0.163,3.628-0.316,5.449-0.446
		c3.453-0.758,7.023-1.429,10.683-2.006c0,0,0.52-0.596,1.406-1.644C295.223,402.18,294.879,402.177,294.535,402.177"/>
	<path clip-path="url(#SVGID_2_)" fill="#383839" d="M696.185,272.521c0,6.52-0.938,14.177-2.6,22.537
		c-1.408,7.188-3.377,14.899-5.707,22.825l-0.017,0.037c-12.479,42.439-35.902,91.324-47.911,102.664
		c-16.866,15.928-60.912,23.422-76.84,12.171c-15.927-11.23,0.94-31.854,16.867-35.592c4.57-1.084,15.929-4.696,21.562-20.623
		c5.617-15.928,1.084-62.214,0-87.153c-2.564-58.51,72.687-59.756,90.764-30.482C694.777,262.896,696.185,267.465,696.185,272.521"
		/>
	<path clip-path="url(#SVGID_2_)" d="M693.918,272.702c-0.208,24.857-9.002,50.029-17.635,73.067
		c-7.724,20.611-16.557,41.199-27.904,60.105c-3.551,5.919-7.359,12.029-12.923,16.267c-7.223,5.5-16.062,8.837-24.773,11.123
		c-9.204,2.415-18.916,3.747-28.44,3.138c-7.602-0.485-17.208-2.166-21.571-9.225c-5.478-8.869,2.998-19.177,10.022-24.062
		c6.012-4.183,13.394-4.69,19.531-8.608c15.233-9.73,16.28-28.215,16.336-44.478c0.069-19.892-1.789-39.715-2.696-59.569
		c-0.684-14.978,3.368-29.893,15.796-39.255c10.567-7.962,24.527-10.508,37.486-9.098c11.639,1.268,24.194,5.868,31.515,15.467
		C692.019,261.979,693.778,267.175,693.918,272.702c0.059,2.306,4.585,1.594,4.535-0.361c-0.813-32.083-44.51-38.743-68.223-30.278
		c-13.525,4.828-24.425,14.92-28.734,28.809c-2.622,8.451-2.356,17.008-1.868,25.735c0.61,10.908,1.37,21.806,1.867,32.719
		c0.488,10.695,0.866,21.457,0.211,32.153c-0.579,9.454-2.212,18.757-8.691,26.14c-2.729,3.11-6.17,5.57-10.049,7.031
		c-3.455,1.303-7.029,1.917-10.372,3.592c-7.943,3.978-15.906,11.31-17.811,20.325c-4.284,20.272,25.363,21.93,38.265,20.874
		c9.888-0.81,19.708-3.031,28.977-6.565c7.687-2.935,15.57-6.949,21.201-13.098c5.361-5.851,9.395-13.097,13.203-20.004
		c5.724-10.383,10.78-21.138,15.471-32.022c10.366-24.05,19.574-49.255,24.373-75.067c1.25-6.716,2.125-13.505,2.181-20.343
		C698.473,270.042,693.935,270.734,693.918,272.702"/>
	<path clip-path="url(#SVGID_2_)" d="M572.294,402.191c8.806-4.824,18.682-7.664,28.774-6.604c2.747,0.287,5.455,0.836,8.074,1.719
		c0.8,0.271,1.584,0.578,2.362,0.906c0.165,0.067,0.931,0.391,0.281,0.12l0.197,0.099c1.002,0.535,2.3,0.41,3.21-0.282
		c0.66-0.501,1.267-1.729,0.254-2.271c-4.01-2.142-8.793-3.117-13.27-3.538c-11.112-1.046-22.14,1.955-31.85,7.275
		C567.653,401.08,570.07,403.411,572.294,402.191"/>
	<path clip-path="url(#SVGID_2_)" fill="#2E2D2C" d="M596.827,395.365c-3.773,0-7.499,0.517-11.132,1.443
		c-3.199,1.315-6.548,2.218-9.743,3.527c-1.237,0.578-2.457,1.198-3.657,1.855c-0.176,0.098-0.353,0.171-0.529,0.226
		c-0.362,0.222-0.72,0.454-1.073,0.699c-7.024,4.885-15.5,15.192-10.021,24.062c0.592,0.958,1.28,1.815,2.047,2.586
		c-0.209-14.325,22.353-30.119,35.309-34.38C597.626,395.372,597.227,395.365,596.827,395.365 M688.206,310.118
		c-4.418,1.155-7.342,4.267-6.664,9.857c0.17,1.403-1.67,2.078-2.854,2.078c-0.071,0-0.14-0.002-0.206-0.007
		c-7.252-0.541-14.56-4.421-20.994-8.67c1.983,3.644,4.474,7.052,7.638,9.483c0.21,0.161,0.35,0.322,0.432,0.483
		c0.088,0.094,0.112,0.191,0.088,0.291c0.094,0.943-1.654,1.751-2.519,1.889c-5.152,0.827-10.502,1.256-15.914,1.256
		c-14.379,0-29.189-3.024-41.814-9.609c0.652,10.943,1.2,21.891,1.161,32.86c-0.052,15.126-0.96,32.177-13.347,42.314
		c1.505-0.139,3.018-0.211,4.536-0.211c1.472,0,2.951,0.066,4.428,0.207c1.183,0.11,2.387,0.26,3.592,0.461
		c1.918-6.126,9.187-27.318,20.674-36.884c12.367-10.285,41.888-10.473,57.484-31.597
		C685.47,319.633,686.916,314.895,688.206,310.118"/>
	<path clip-path="url(#SVGID_2_)" d="M569.496,401.934c-11.364,7.75-18.74,22.11-6.386,30.822c-0.25-0.985-0.377-1.985-0.392-2.992
		c-0.767-0.77-1.455-1.629-2.046-2.587c-5.479-8.867,2.997-19.177,10.021-24.06c0.353-0.247,0.71-0.479,1.072-0.701
		c-0.258,0.08-0.513,0.117-0.757,0.117C570.382,402.533,569.832,402.293,569.496,401.934 M585.695,396.81
		c-3.338,0.853-6.598,2.055-9.744,3.525C579.147,399.027,582.495,398.123,585.695,396.81 M603.061,315.896
		c1.36,23.24,2.428,49.446-1.521,60.645c-2.927,8.273-7.397,13.224-11.659,16.222c1.105-0.175,2.217-0.314,3.332-0.418
		c12.386-10.138,13.295-27.187,13.347-42.313c0.039-10.97-0.51-21.917-1.161-32.862C604.61,316.758,603.833,316.334,603.061,315.896
		 M690.714,309.682c-0.876,0.085-1.716,0.229-2.508,0.438c-1.29,4.776-2.737,9.513-4.279,14.203
		c1.438-1.948,2.757-4.074,3.934-6.401l0.017-0.037c1.217-2.413,2.222-5.048,3.042-7.845
		C690.851,309.919,690.783,309.801,690.714,309.682"/>
	<path clip-path="url(#SVGID_2_)" d="M597.749,392.133c-1.518,0-3.031,0.072-4.536,0.211c-1.115,0.103-2.226,0.243-3.332,0.418
		c-3.942,2.775-7.708,3.881-9.903,4.401c-3.573,0.839-7.195,2.528-10.482,4.771c0.336,0.359,0.887,0.599,1.512,0.599
		c0.244,0,0.499-0.036,0.758-0.116c0.176-0.054,0.353-0.128,0.529-0.224c1.2-0.658,2.42-1.279,3.657-1.857
		c3.146-1.472,6.405-2.673,9.743-3.525c3.633-0.929,7.359-1.444,11.132-1.444c0.4,0,0.8,0.006,1.201,0.018
		c2.186-0.719,4.099-1.109,5.583-1.109c0.631,0,1.186,0.07,1.649,0.216c0,0,0.172-0.611,0.51-1.688
		c-1.206-0.199-2.41-0.35-3.593-0.461C600.699,392.2,599.221,392.133,597.749,392.133"/>
	<path clip-path="url(#SVGID_2_)" fill="#404345" d="M900.466,402.779c0,0-78.718,0-78.718-114.329l-0.018,0.054
		c-0.091,0.38-0.633,2.799-1.517,6.608c-4.299,18.583-16.542,70.466-21.888,84.243c-6.554,16.868-13.128,23.424-14.067,37.474
		c-0.903,13.851-55.495,19.521-90.258,12.515c-0.524-0.108-1.047-0.217-1.571-0.325c-34.672-7.494,7.495-29.056,29.996-29.996
		c0,0,3.738-38.41,3.738-46.844c0,0-2.907-1.95-7.946-7.35c-6.032-6.466-15.079-17.823-25.788-36.695c0,0-0.433,0-1.155,0.054
		c-0.596,0.036-1.373,0.126-2.276,0.271c-4.352,0.774-11.142,3.377-9.698,12.116c0,0-9.896-0.632-27.16-13.381
		c0,0,4.678,12.189,11.233,16.866c0,0-45.906,7.494-72.145-19.684c0,0-30.936,18.746-84.354,3.757c0,0-5.616,6.555,3.757,12.17
		c0,0-13.11,6.575-30.917-8.432c0,0-0.939,15.007,8.434,15.007c0,0-19.468,7.747-36.19-5.58c-0.235-0.163-0.452-0.343-0.668-0.524
		c0,0-2.257,8.398-5.743,20.173c-5.905,20.043-15.332,49.878-23.006,64.647c-12.172,23.424-29.978,36.535-63.712,37.473
		c-17.534,0.488-35.575,2.493-47.549,1.536c-11.051-0.867-16.92-4.262-12.424-13.707c9.355-19.683,49.661-15.008,49.661-15.008
		s7.35-13.128,11.232-22.482c4.695-11.25,9.373-53.418-5.617-73.103c0,0-0.938,6.575,0,11.251c0,0-20.604-6.554-30.916-38.41
		c0,0-0.939,17.788,1.86,23.422c0,0-9.481,1.499-33.734-14.066c-24.235-15.549-41.499-33.084-59.973-57.157
		c-24.198-31.548-38.411-49.661-53.417-47.783c-40.361,5.038-51.937-2.673-71.206-2.963h-0.018
		c-6.086-0.106-12.949,0.543-21.724,2.566c-26.059,6.013-46.665,3.195-52.298-1.481c-3.739-3.105-7.965-5.309-11.847-7.964
		l-0.036-0.018c-6.899-4.715-12.822-10.8-13.418-25.753c-0.307-7.944,2.601-11.899,6.935-13.94l0.072-0.054
		c1.264-0.578,2.637-1.013,4.063-1.338c0.271-0.054,0.542-0.107,0.813-0.162c0.271-0.055,0.559-0.091,0.849-0.145
		c1.047-0.162,2.203-0.306,3.521-0.433c0.271-0.02,0.524-0.036,0.812-0.073c0.578-0.053,1.138-0.089,1.716-0.127
		c1.011-0.053,2.041-0.107,3.034-0.179c4.605-0.272,8.921-0.632,11.774-2.421c0.397-0.254,0.759-0.524,1.084-0.813
		c17.805-15.963,9.372-28.93,29.056-39.296c19.685-10.366,22.483-17.86,31.856-28.171c9.372-10.313,36.551-22.501,47.801-24.362
		c11.233-1.878,10.294,10.294,10.294,10.294s13.562-0.957,24.649-1.843h0.019c3.774-0.306,7.277-0.595,9.841-0.848
		c0.398-0.036,0.76-0.072,1.103-0.109c5.815-0.577,10.98-0.776,15.783-0.65c10.692,0.309,19.649,2.168,30.285,4.75
		c17.738,4.285,23.784,3.973,30.544,3.657c6.115-0.284,12.813-0.566,29.284,2.555c8.722,1.644,15.315,2.168,20.749,1.934
		c16.181-0.741,22.178-8.271,43.919-13.184c13.093-2.955,25.807-1.53,38.572-0.106c15.547,1.733,31.169,3.467,47.642-2.711
		c13.093-4.912,37.255-18.581,69.544-29.364c41.643-13.939,96.813-23.078,159.097-2.491
		c110.574,36.552,121.825,91.828,139.631,133.057c3.34,7.729,7.043,15.44,10.907,23.188c0.308,0.614,0.614,1.229,0.921,1.841
		c0.145,0.273,0.27,0.523,0.397,0.777c16.452,32.814,35.45,66.872,42.131,109.148C884.537,343.746,907.96,334.373,900.466,402.779"
		/>
	<path clip-path="url(#SVGID_2_)" d="M901.285,401.31c-8.757-0.02-17.926-2.913-25.763-6.566
		c-19.975-9.315-34.136-26.903-41.945-47.248c-7.227-18.829-9.513-39.218-9.571-59.265c-0.007-2.301-3.99-1.099-4.515,0.438
		c-2.515,7.363-3.613,15.622-5.415,23.203c-2.442,10.274-4.935,20.539-7.526,30.777c-2.37,9.367-4.774,18.739-7.542,28.001
		c-2.911,9.74-7.354,18.635-11.688,27.802c-2.22,4.697-4.099,9.553-4.893,14.712c-0.554,3.589-0.27,6.016-3.274,8.376
		c-6.435,5.059-16.447,6.396-24.257,7.525c-11.535,1.667-23.273,2.122-34.911,1.645c-5.747-0.234-11.49-0.702-17.188-1.492
		c-5.557-0.77-11.723-1.511-16.809-4.036c-9.519-4.726-0.527-11.851,5.137-15.126c9.255-5.351,20.352-9.008,31.054-9.57
		c0.854-0.044,2.404-0.663,2.503-1.683c1.406-14.46,2.946-28.964,3.632-43.479c0.129-2.704,0.382-3.635-1.646-5.296
		c-3.843-3.153-7.222-6.901-10.417-10.697c-8.343-9.913-15.343-20.906-21.758-32.136c-0.322-0.563-1.292-0.535-1.818-0.524
		c-8.709,0.192-16.788,4.843-15.617,14.505c1.019-0.688,2.04-1.381,3.06-2.069c-9.345-0.696-19.021-7.865-26.227-13.112
		c-0.979-0.713-4.637,0.145-3.993,1.801c2.514,6.456,6.158,13.189,11.721,17.467c0.667-0.889,1.333-1.774,1.999-2.663
		c-24.094,3.872-52.78-1.389-70.327-19.159c-0.926-0.939-2.528-0.515-3.508,0.072c-0.144,0.088-0.291,0.178-1.058,0.562
		c-1.346,0.672-2.718,1.287-4.112,1.854c-4.967,2.029-10.188,3.463-15.447,4.507c-20.237,4.019-41.221,1.754-60.963-3.683
		c-0.991-0.271-2.491,0.023-3.169,0.85c-4.271,5.211-1.101,10.666,3.845,13.903c0.27-0.782,0.538-1.562,0.807-2.343
		c-9.268,4.504-21.325-2.849-28.219-8.491c-0.972-0.796-3.93-0.008-4.01,1.419c-0.383,6.914,1.61,15.812,9.872,16.258
		c-0.042-0.871-0.085-1.741-0.127-2.612c-10.936,4.258-24.66,1.291-34.16-6.16c-1.152-0.906-3.645,0.069-4.009,1.419
		c-5.238,19.44-11.068,38.795-17.736,57.797c-6.35,18.099-13.564,37.737-29.297,49.872c-18.544,14.305-42.64,12.752-64.766,14.026
		c-6.288,0.36-12.594,0.756-18.896,0.694c-4.983-0.047-11.312,0.163-15.748-2.46c-8.476-5.014,2.062-15.951,7.338-18.761
		c10.98-5.848,25.616-6.188,37.772-4.803c1.014,0.113,2.417-0.377,2.936-1.308c4.064-7.276,8.141-14.732,11.232-22.481
		c2.533-6.352,3.473-13.374,4.116-20.136c1.686-17.71,1.207-39.161-9.785-54.068c-0.921-1.248-4.119-0.342-4.323,1.158
		c-0.522,3.846-0.611,7.796,0.016,11.631c1.19-0.66,2.38-1.321,3.571-1.981c-15.487-5.04-25.304-23.504-30.004-37.631
		c-0.558-1.675-4.415-0.813-4.499,0.821c-0.377,7.413-1.207,16.879,1.876,23.802c0.829-0.687,1.659-1.375,2.488-2.063
		c-2.05,0.297-6.218-0.907-8.816-1.784c-10.6-3.577-20.375-9.778-29.529-16.089c-20.674-14.257-37.789-32.396-53.067-52.205
		c-7.807-10.125-15.47-20.407-23.954-29.984c-5.346-6.034-11.239-12.365-18.464-16.175c-7.455-3.935-14.171-2.521-22.289-1.81
		c-10.398,0.91-20.84,1.027-31.224-0.124c-15.287-1.692-29.541-5.207-45.028-2.745c-13.343,2.119-26.055,5.446-39.704,4.836
		c-4.611-0.207-9.307-0.688-13.729-2.074c-4.212-1.322-7.252-4.275-10.931-6.617c-8.348-5.317-15.47-10.283-17.867-20.52
		c-1.25-5.331-2.37-12.889,1.017-17.69c2.964-4.204,8.654-4.57,13.344-4.919c5.379-0.404,11.451-0.102,16.355-2.71
		c4.252-2.263,7.686-6.72,10.322-10.667c5.08-7.606,6.261-17.646,12.799-24.271c4.384-4.44,10.361-6.768,15.57-10.06
		c4.151-2.624,8.076-5.609,11.587-9.046c5.932-5.812,10.264-13.21,16.711-18.488c7.78-6.368,17.172-10.976,26.389-14.863
		c5.445-2.296,19.48-9.684,23.094-1.62c0.738,1.646,1.038,3.668,0.918,5.471c-0.071,1.08,1.178,1.3,2.011,1.242
		c16.341-1.154,32.995-3.678,49.371-3.471c18.765,0.237,36.293,7.975,54.93,8.567c2.507,0.081,5.009-0.027,7.511-0.132
		c2.033-0.087,4.066-0.174,6.101-0.16c8.262,0.053,16.376,1.548,24.485,2.984c8.418,1.488,17.134,2.439,25.636,1.057
		c6.572-1.071,12.623-3.655,18.735-6.186c9.121-3.776,18.637-6.926,28.521-7.809c10.297-0.92,20.601,0.402,30.826,1.525
		c18.233,2.005,35.486,2.076,52.588-5.351c15.33-6.658,30.204-14.249,45.752-20.428c17.299-6.871,35.125-12.444,53.381-16.128
		c41.264-8.328,83.767-5.801,123.7,7.563c32.437,10.856,64.812,25.945,89.673,49.981c16.038,15.509,27.55,34.298,36.319,54.686
		c3.6,8.371,6.815,16.899,10.372,25.288c7.514,17.724,16.696,34.676,25.252,51.901c8.891,17.9,17.176,36.163,23.01,55.313
		c5.232,17.177,6.537,35.272,12.313,52.254c3.316,9.748,8.396,18.582,12.701,27.886c4.908,10.604,7.229,21.807,7.587,33.474
		c0.287,9.349-0.402,18.701-1.395,27.991c-0.222,2.079,4.322,1.357,4.514-0.439c1.674-15.667,2.738-32.063-0.997-47.537
		c-2.359-9.774-7.147-18.43-11.542-27.38c-5.716-11.639-9.48-23.825-11.628-36.614c-3.539-21.06-9.746-41.197-18.202-60.798
		c-13.321-30.877-30.231-59.965-42.813-91.192c-7.772-19.29-16.569-38.06-29.857-54.242c-18.998-23.136-44.796-39.476-71.937-51.491
		C677.14,16.211,635.976,6.686,593.631,9.237c-37.604,2.265-73.781,13.478-108,28.804c-14.516,6.5-29.245,15.628-45.154,18.106
		c-11.411,1.776-22.788,0.52-34.175-0.736c-8.874-0.98-17.754-1.958-26.662-1.503c-9.608,0.493-18.973,2.948-27.96,6.293
		c-6.909,2.57-13.562,6.091-20.819,7.621c-10.215,2.151-20.455,0.382-30.705-1.389c-6.968-1.203-13.939-2.406-20.91-2.379
		c-4.538,0.02-9.063,0.475-13.602,0.248c-8.44-0.42-16.663-2.528-24.856-4.444c-10.511-2.458-21.089-4.199-31.916-4.074
		c-9.121,0.106-18.23,1.285-27.318,1.988c-6.738,0.521-13.478,1.017-20.221,1.492c0.671,0.415,1.341,0.829,2.011,1.244
		c0.319-4.83-1.684-9.996-6.705-11.37c-7.498-2.054-17.556,3.047-24.252,5.901c-9.371,3.996-18.885,8.767-26.846,15.194
		c-6.78,5.475-11.313,13.088-17.505,19.152c-4.16,4.075-8.959,7.4-13.985,10.314c-5.257,3.046-10.656,5.611-14.61,10.395
		c-5.93,7.171-7.229,16.897-12.635,24.444c-2.271,3.172-5.618,7.456-9.469,8.547c-3.489,0.989-7.315,0.885-10.902,1.127
		c-4.625,0.313-9.481,0.776-13.649,2.965c-9.14,4.798-8.609,16.332-6.242,25.038c2.557,9.412,9.308,14.719,17.201,19.674
		c3.774,2.369,7.131,5.569,11.314,7.191c3.752,1.457,7.833,2.115,11.817,2.533c12.881,1.353,25.912-0.337,38.492-3.102
		c10.116-2.223,20.084-3.022,30.356-1.694c7.523,0.972,14.953,2.513,22.509,3.251c10.917,1.063,21.926,0.761,32.831-0.306
		c4.661-0.456,9.07-1.481,13.61,0.053c3.544,1.195,6.735,3.367,9.629,5.693c8.804,7.076,15.938,16.343,22.9,25.15
		c16.586,20.978,32.325,42.17,53.211,59.181c10.284,8.375,21.433,16.085,33.339,21.972c5.727,2.831,12.099,5.7,18.565,6.206
		c0.822,0.064,1.693,0.129,2.514,0.011c0.677-0.099,3.027-0.854,2.487-2.064c-3.018-6.775-2.212-15.784-1.843-23.041
		c-1.5,0.274-2.999,0.547-4.498,0.821c5.042,15.153,15.403,33.844,31.828,39.189c1.182,0.386,3.834-0.362,3.57-1.979
		c-0.588-3.589-0.472-7.273,0.016-10.871c-1.441,0.385-2.881,0.772-4.322,1.159c10.852,14.714,11.097,36.227,9.3,53.65
		c-0.675,6.546-1.611,13.347-4.199,19.443c-3.112,7.333-6.887,14.437-10.77,21.388c0.979-0.435,1.957-0.869,2.936-1.306
		c-12.323-1.402-26.057-0.728-37.666,3.822c-7.22,2.83-14.316,8.098-16.251,16.018c-2.429,9.943,9.761,11.541,16.827,11.931
		c14.566,0.801,29.239-1.063,43.788-1.577c11.836-0.418,23.551-1.649,34.624-6.127c19.281-7.797,31.023-24.442,38.728-43.088
		c9.98-24.158,17.368-49.631,24.161-74.845c-1.337,0.476-2.673,0.947-4.009,1.421c11.017,8.646,26.378,11.178,39.554,6.047
		c1.504-0.586,1.796-2.509-0.126-2.612c-6.265-0.34-7.268-8.829-6.994-13.758c-1.337,0.474-2.674,0.947-4.01,1.421
		c8.637,7.067,22.373,13.841,33.614,8.377c0.842-0.41,2-1.564,0.807-2.344c-3.387-2.219-6.87-6.535-3.668-10.441
		c-1.056,0.284-2.112,0.567-3.169,0.849c20.601,5.671,42.333,7.859,63.444,3.802c8.028-1.545,16.593-3.817,23.681-8.073
		c-1.17,0.024-2.34,0.048-3.509,0.075c18.447,18.682,48.622,24.279,73.963,20.208c1.096-0.177,3.609-1.426,1.999-2.663
		c-5.098-3.921-8.448-10.369-10.744-16.268c-1.331,0.602-2.662,1.2-3.993,1.801c7.803,5.683,18.002,12.899,28.094,13.651
		c1.161,0.086,3.24-0.584,3.059-2.07c-0.865-7.143,4.146-10.235,10.641-10.38c-0.605-0.175-1.211-0.35-1.818-0.523
		c6.342,11.101,13.254,21.963,21.467,31.788c3.05,3.649,6.272,7.196,9.86,10.327c0.673,0.586,2.258,1.383,2.669,2.156
		c-0.687-1.295-0.556,2.363-0.593,3.07c-0.736,14.297-2.214,28.582-3.599,42.829c0.835-0.563,1.669-1.121,2.503-1.683
		c-10.062,0.528-20.217,3.691-29.264,8.031c-5.518,2.648-15.544,7.432-16.379,14.52c-0.998,8.462,13.914,10.358,19.249,11.283
		c12.454,2.155,25.181,2.717,37.8,2.313c11.587-0.37,23.413-1.48,34.614-4.613c5.789-1.617,14.696-4.211,17.291-10.395
		c0.71-1.693,0.62-3.557,0.871-5.348c0.499-3.563,1.475-7.004,2.818-10.34c2.497-6.204,5.871-12.029,8.56-18.152
		c3.746-8.533,6.202-17.504,8.624-26.483c3.458-12.819,6.633-25.713,9.743-38.62c1.408-5.84,2.795-11.684,4.167-17.533
		c1.075-4.589,1.724-9.548,3.242-13.992c-1.505,0.145-3.01,0.293-4.515,0.438c0.091,31.045,5.494,64.818,26.648,88.955
		c11.186,12.764,26.424,21.831,43.064,25.281c3.403,0.706,6.953,1.337,10.445,1.343C901.592,404.253,904.306,401.316,901.285,401.31
		"/>
	<path clip-path="url(#SVGID_2_)" fill="#D1D3D4" d="M31.774,159.131c15.707-1.928,22.739,0.938,31.862,20.616
		c9.123,19.68-4.686-18.742,14.056-20.616c18.743-1.873,52.478-14.057,74.969-32.799c22.49-18.742,39.612-22.49,82.122-9.371
		c42.512,13.12,60.317,48.616,82.807,49.61c0,0-24.364,12.125-51.541,0c0,0,16.869,12.012,27.177,12.125
		c0,0-43.107,10.309-88.088-12.125c0,0-12.682,15.12-44.044,21.128c-17.52,3.357-34.755,2.026-48.592,0.696
		c-11.328-1.089-20.377-2.178-25.438-0.696c-11.246,3.293-27.996,18.809-54.356,7.983C13.272,187.699,31.774,159.131,31.774,159.131
		"/>
	<path clip-path="url(#SVGID_2_)" d="M30.802,160.023c5.46-0.643,11.32-1.078,16.358,1.564c5.312,2.79,8.73,8.117,11.496,13.248
		c1.406,2.606,2.586,5.314,3.905,7.963c0.416,0.835,0.988,2.539,1.832,3.104c1.444,0.964,4.335,0.01,4.935-1.564
		c0.787-2.059-0.047-5.523-0.027-7.684c0.035-3.875,0.327-7.947,1.947-11.525c2.205-4.869,5.601-4.988,10.383-5.758
		c6.096-0.984,12.096-2.559,17.984-4.4c14.396-4.504,28.375-10.774,41.161-18.795c10.921-6.849,20.04-16.51,31.854-21.906
		c11.604-5.299,24.443-4.744,36.724-2.474c15.779,2.917,31.585,7.644,45.53,15.7c12.442,7.186,23.103,16.697,34.104,25.831
		c7.839,6.508,16.548,13.532,27.148,14.151c0.055-0.397,0.11-0.796,0.165-1.193c-14.714,7.232-33.488,5.85-48.138-0.476
		c-0.884-0.381-5.01,0.967-4.225,1.522c7.901,5.598,17.907,11.894,27.833,12.271c0.424-0.528,0.848-1.058,1.272-1.589
		c0.664-0.156-1.057,0.212-1.577,0.31c-1.658,0.307-3.327,0.563-4.998,0.778c-6.45,0.831-12.969,1.144-19.468,1.027
		c-20.72-0.361-41.143-5.171-59.749-14.319c-1-0.49-3.409,0.073-4.139,0.937c-5.934,7.001-15.337,11.742-23.676,15.015
		c-21.49,8.439-44.358,7.779-66.927,5.587c-7.076-0.687-14.421-1.83-21.536-1.089c-5.296,0.552-10.015,3.005-14.728,5.313
		c-7.616,3.729-15.413,6.996-24.049,6.984c-7.828-0.01-20.004-1.859-24.302-9.354c-5.263-9.179,0.952-22.482,6.091-30.468
		c0.3-0.47-3.707-0.313-4.419,0.795c-4.938,7.675-10.179,19.126-7.252,28.34c2.527,7.953,11.848,10.517,19.187,11.797
		c8.354,1.456,16.813,0.475,24.826-2.183c6.788-2.249,12.836-6.063,19.484-8.591c6.782-2.576,15.667-0.522,22.656,0.159
		c22.668,2.214,45.257,2.798,67.18-4.382c10.967-3.592,23.827-9.195,31.52-18.273l-4.139,0.936
		c19.311,9.493,40.56,14.402,62.067,14.628c9.401,0.098,19.127-0.407,28.315-2.581c0.634-0.148,3.256-1.514,1.272-1.589
		c-9.366-0.358-19.053-6.689-26.518-11.98c-1.409,0.509-2.817,1.016-4.225,1.522c16.891,7.292,38.152,7.78,54.942-0.475
		c0.737-0.361,1.493-1.115,0.166-1.193c-8.107-0.475-15.162-5.405-21.36-10.242c-7.966-6.215-15.377-13.105-23.414-19.237
		c-20.241-15.436-44.644-24.682-69.97-27.401c-9.368-1.007-18.845-0.489-27.848,2.42c-8.584,2.773-16.225,7.63-23.247,13.209
		c-20.341,16.16-44.423,28.943-70.322,33.256c-4.113,0.684-8.362,0.73-11.925,3.183c-2.83,1.948-4.403,5.022-5.213,8.288
		c-0.809,3.269-0.954,6.678-0.927,10.028c0.012,1.407,0.087,2.812,0.101,4.217c0.003,0.384-0.151,1.173-0.007,1.52
		c0.398,0.954-1.769,0.868,1.147-0.063c0.871-0.122,1.744-0.242,2.615-0.364c-1.033-0.149-3.474-6.776-3.906-7.655
		c-2.322-4.737-4.967-9.573-8.763-13.311c-6.343-6.247-14.944-6.251-23.259-5.271C31.589,158.375,27.896,160.366,30.802,160.023"/>
	<path clip-path="url(#SVGID_2_)" d="M316.248,71.464c15.828,3.063,26.187,20.983,33.003,34.04
		c6.655,12.754,12.345,26.533,15.765,40.538c0.426,1.746,4.917,0.579,4.482-1.2c-3.609-14.78-9.712-29.344-16.913-42.702
		c-7.119-13.205-17.625-30.228-33.651-33.327C317.324,68.5,313.641,70.961,316.248,71.464"/>
	<path clip-path="url(#SVGID_2_)" d="M432.771,59.332c15.129,0.17,29.141,8.72,40.496,18.025c8.932,7.321,17.576,15.937,23.88,25.68
		c0.788,1.218,4.964-0.457,4.482-1.2c-6.721-10.391-15.938-19.564-25.579-27.227c-11.85-9.419-25.924-17.145-41.401-17.316
		C433.278,57.278,429.794,59.301,432.771,59.332"/>
	<path clip-path="url(#SVGID_2_)" fill="#FFFFFF" d="M99.898,127.607c0,0,16.532-25.134,38.524-2.762
		C138.422,124.846,124.969,154.359,99.898,127.607"/>
	<path clip-path="url(#SVGID_2_)" fill="#5E2D00" d="M105.975,121.204c-4.857,3.646-1.319,12.44,4.69,15.021
		c5.412,2.327,10.249,3.936,14.375-0.651c5.871-6.523,3.781-17.568-3.709-19.584C117.995,115.092,111.652,116.942,105.975,121.204"
		/>
	<path clip-path="url(#SVGID_2_)" d="M104.216,120.976c-4.231,3.305-2.956,9.018,0.037,12.719c1.815,2.244,4.219,3.43,6.864,4.445
		c2.915,1.117,6.002,1.839,9.121,1.23c5.996-1.173,10.091-6.542,10.405-12.522c0.249-4.718-1.931-9.667-6.515-11.512
		c-2.845-1.146-6.13-0.663-8.998,0.147C111.181,116.597,107.502,118.538,104.216,120.976c-0.722,0.535-0.508,1.184,0.35,1.307
		c1.043,0.15,2.326-0.225,3.169-0.85c2.184-1.619,4.641-3.043,7.186-3.893c1.038-0.347,1.904-0.552,2.822-0.641
		c0.697-0.068,1.419-0.042,2.114,0.175c3.856,1.198,5.937,5.091,6.277,8.913c0.185,2.079-0.153,4.181-0.94,6.112
		c-0.792,1.944-2.217,4.149-4.154,5.083c-0.327,0.157-0.297,0.154-0.742,0.199c-0.368,0.038-0.922,0.017-1.376-0.04
		c-1.185-0.147-2.324-0.495-3.446-0.896c-2.289-0.82-4.459-1.705-6.193-3.46c-2.633-2.666-5.283-8.637-1.548-11.554
		c0.7-0.547,0.524-1.18-0.35-1.307C106.362,119.98,105.032,120.338,104.216,120.976"/>
	<path clip-path="url(#SVGID_2_)" d="M102.102,127.186c1.819-2.75,4.308-5.173,6.934-7.136c2.153-1.608,4.639-3.039,7.325-3.475
		c3.669-0.594,7.483,0.407,10.753,2.049c2.139,1.075,4.121,2.442,5.959,3.972c0.663,0.553,3.062,2.199,3.062,2.854
		c0,0.845-1.331,2.398-1.765,3.064c-2.378,3.64-5.702,7.43-9.889,8.962c-2.978,1.092-6.472,0.34-9.315-0.81
		c-5.122-2.068-9.394-5.833-13.146-9.795c-0.72-0.758-4.788,0.892-4.239,1.471c6.85,7.231,15.584,13.213,25.921,10.639
		c6.193-1.542,11.169-5.568,14.717-10.777c0.818-1.2,1.602-2.457,2.209-3.78c0.079-0.134,0.05-0.236-0.085-0.313
		c-6.573-6.594-14.787-10.847-24.225-8.808c-6.242,1.35-11.702,4.789-15.99,9.468c-0.939,1.023-1.862,2.098-2.631,3.26
		c-0.407,0.615,1.614,0.332,1.76,0.305C100.232,128.195,101.619,127.916,102.102,127.186"/>
	<path clip-path="url(#SVGID_2_)" fill="#FFFFFF" d="M130.015,121.961c0.505,1.563,0.715,3.239,0.628,4.888
		c-0.007,0.135-0.016,0.27-0.027,0.405c1.191-0.781,1.904-1.847,1.802-2.915C132.314,123.241,131.376,122.387,130.015,121.961"/>
	<path clip-path="url(#SVGID_2_)" fill="#B79371" d="M125.17,122.146c-2.063,0.73-3.463,2.188-3.322,3.66
		c0.146,1.547,1.951,2.613,4.261,2.668c0.089-0.823,0.098-1.657,0.024-2.486C126.018,124.678,125.696,123.361,125.17,122.146"/>
	<path clip-path="url(#SVGID_2_)" fill="#989798" d="M127.968,121.667c-0.374,0-0.759,0.026-1.153,0.081
		c-0.58,0.08-1.133,0.218-1.646,0.398c0.527,1.214,0.847,2.532,0.964,3.84c0.073,0.829,0.064,1.663-0.024,2.488
		c0.062,0.002,0.126,0.003,0.189,0.003c0.373,0,0.758-0.027,1.151-0.081c1.218-0.169,2.314-0.584,3.166-1.143
		c0.011-0.136,0.02-0.271,0.027-0.405c0.087-1.648-0.123-3.325-0.628-4.888C129.405,121.771,128.711,121.667,127.968,121.667"/>
	<path clip-path="url(#SVGID_2_)" d="M107.538,126.119c-2.139,3.15,0.306,9.309,3.603,11.25c3.297,1.943,5.436,0.483,7.575-2.668
		c2.139-3.149,1.962-8.826-1.335-10.77S109.677,122.969,107.538,126.119"/>
	<path clip-path="url(#SVGID_2_)" fill="#FFFFFF" d="M110.838,126.352c-0.799-0.393-1.836-0.038-2.317,0.79
		c-0.48,0.83-0.223,1.821,0.576,2.216c0.799,0.393,1.836,0.039,2.317-0.79C111.896,127.737,111.637,126.746,110.838,126.352"/>
	<path clip-path="url(#SVGID_2_)" fill="#393B3C" d="M511.685,30.322c-2.137,0.803-4.267,1.627-6.388,2.469
		c-15.549,6.178-30.423,13.769-45.753,20.428c-4.298,1.866-8.607,3.258-12.937,4.266c-0.726,0.39-1.3,0.722-1.747,1.002
		c11.478,2.536,22.003,8.821,31.19,16.124c9.231,7.337,18.073,16.06,24.708,25.905c-0.405-4.717-2.887-15.519-4.181-30.377
		C495.078,52.922,507.002,36.172,511.685,30.322"/>
	<path clip-path="url(#SVGID_2_)" d="M512.383,29.463c-2.912,1.089-5.809,2.214-8.691,3.372
		c-15.298,6.151-29.934,13.708-45.081,20.184c-3.323,1.42-6.66,2.554-10.013,3.444c-0.765,0.38-1.425,0.719-1.992,1.021
		c4.331-1.007,8.639-2.4,12.938-4.266c15.33-6.658,30.204-14.249,45.752-20.429c2.121-0.842,4.251-1.666,6.388-2.468
		C511.94,30.003,512.174,29.717,512.383,29.463"/>
	<path clip-path="url(#SVGID_2_)" fill="#393B3C" d="M500.629,102.864c-0.191,0.093-0.4,0.18-0.617,0.257
		c0.071,0.021,0.136,0.03,0.197,0.03C500.395,103.151,500.532,103.055,500.629,102.864"/>
	<path clip-path="url(#SVGID_2_)" d="M444.859,58.486c-2.042,1.285-1.451,1.537-0.673,1.537c0.501,0,1.079-0.104,1.079-0.104
		s22.139,2.788,43.038,28.776c6.91,9.515,10.316,14.015,11.709,14.425c0.217-0.077,0.426-0.164,0.617-0.256
		c0.201-0.396,0.228-1.188,0.128-2.35c-6.635-9.846-15.476-18.567-24.708-25.904C466.862,67.308,456.338,61.022,444.859,58.486"/>
	<path clip-path="url(#SVGID_2_)" fill="#393B3C" d="M364.399,59.098c-5.734,1.459-11.332,3.493-16.79,5.755
		c-6.111,2.529-12.163,5.113-18.735,6.184c-0.832,0.136-1.666,0.249-2.502,0.341c11.938,6.007,20.26,19.719,26.213,30.762
		c2.636,4.893,5.126,9.945,7.399,15.11C356.737,99.244,353.472,69.566,364.399,59.098"/>
	<path clip-path="url(#SVGID_2_)" d="M365.354,58.262c-6.47,1.561-12.757,3.911-18.895,6.469
		c-6.111,2.546-12.224,4.988-18.821,5.933c-0.73,0.105-1.462,0.193-2.195,0.267c0.312,0.145,0.621,0.294,0.928,0.447
		c0.836-0.093,1.67-0.205,2.503-0.341c6.572-1.07,12.623-3.654,18.735-6.184c5.457-2.262,11.055-4.295,16.789-5.754
		C364.707,58.804,365.024,58.525,365.354,58.262"/>
	<path clip-path="url(#SVGID_2_)" d="M325.444,70.929c-0.445,0.046-0.89,0.084-1.335,0.117c1.692,1.858,3.858,3.763,6.604,5.684
		c19.251,13.524,27.594,36.477,30.737,47.98c-0.452-2.124-0.959-4.649-1.465-7.461c-2.274-5.165-4.764-10.218-7.4-15.11
		c-5.953-11.043-14.275-24.755-26.213-30.762C326.065,71.223,325.756,71.074,325.444,70.929"/>
	<path clip-path="url(#SVGID_2_)" d="M361.45,124.71c0.794,3.829,1.426,6.357,1.57,6.898
		C362.93,131.085,362.478,128.521,361.45,124.71"/>
	<path clip-path="url(#SVGID_2_)" fill="#515354" d="M193.134,59.316c-1.931,0.141-3.862,0.298-5.793,0.467
		c-0.168,0.134-0.374,0.263-0.622,0.385c-3.022,1.478-6.031,2.988-9.026,4.531c2.423,0.561,4.772,1.097,7.051,1.609
		C187.13,63.366,189.88,61.179,193.134,59.316"/>
	<path clip-path="url(#SVGID_2_)" fill="#3C3A3B" d="M193.667,59.017c-2.039,0.182-4.076,0.378-6.112,0.569
		c-0.063,0.067-0.135,0.132-0.215,0.197c1.931-0.169,3.863-0.327,5.793-0.466C193.311,59.216,193.487,59.116,193.667,59.017"/>
	<path clip-path="url(#SVGID_2_)" fill="#515354" d="M216.792,59.092c2.394,1.364,4.505,3.134,6.327,5.304l3.25,5.038
		c0.813,1.57,1.354,3.195,1.68,4.856c9.671,1.204,17.616,1.646,25.136,1.646c3.082,0,6.092-0.074,9.122-0.199
		c21.003-0.878,27.287-0.921,37.961-6.282c-7.122-1.253-14.261-2.411-21.515-2.459c-0.137-0.001-0.274-0.002-0.411-0.002
		c-1.898,0-3.794,0.081-5.69,0.162c-1.889,0.081-3.779,0.161-5.671,0.161c-0.612,0-1.226-0.008-1.839-0.029
		C248.698,66.766,233.119,60.682,216.792,59.092"/>
	<path clip-path="url(#SVGID_2_)" fill="#3C3A3B" d="M215.792,58.555c0.339,0.173,0.672,0.352,1,0.537
		c16.327,1.59,31.906,7.674,48.35,8.195c0.613,0.021,1.227,0.029,1.839,0.029c1.892,0,3.782-0.08,5.671-0.16
		c1.896-0.081,3.792-0.163,5.69-0.163c0.137,0,0.274,0.001,0.411,0.002c7.254,0.048,14.393,1.206,21.515,2.459
		c0.175-0.087,0.352-0.177,0.529-0.268c-7.382-1.277-14.748-2.598-22.27-2.676c-0.214-0.002-0.428-0.003-0.642-0.003
		c-1.918,0-3.834,0.081-5.75,0.161c-1.912,0.081-3.824,0.161-5.738,0.161c-0.624,0-1.248-0.008-1.872-0.028
		C247.957,66.274,232.264,60.046,215.792,58.555"/>
	<path clip-path="url(#SVGID_2_)" fill="#515354" d="M606.511,11.869c-15.981,0-32.002,1.598-47.833,4.793
		c-5.208,1.051-10.38,2.255-15.515,3.6c12.672-2.246,28.876-4.106,47.208-4.106c34.571,0,76.711,6.61,117.048,29.711
		c57.453,32.909,89.794,72.218,110.002,105.161c-0.501-1.211-0.997-2.425-1.49-3.639c-2.404-5.925-4.737-11.88-7.248-17.763
		c-0.104-0.244-0.209-0.488-0.314-0.733c-8.768-20.387-20.28-39.176-36.319-54.685c-24.86-24.036-57.235-39.125-89.673-49.982
		C657.765,15.987,632.184,11.869,606.511,11.869"/>
	<path clip-path="url(#SVGID_2_)" fill="#3C3A3B" d="M605.859,11.426c-15.773,0-31.597,1.557-47.282,4.678
		c-7.683,1.527-15.287,3.41-22.807,5.588c2.305-0.485,4.774-0.965,7.392-1.43c5.135-1.346,10.308-2.55,15.515-3.601
		c15.831-3.194,31.852-4.792,47.833-4.792c25.673,0,51.255,4.119,75.867,12.357c32.437,10.855,64.812,25.944,89.672,49.98
		c16.039,15.51,27.551,34.298,36.32,54.687c0.105,0.244,0.209,0.487,0.314,0.731c-0.199-0.464-0.398-0.928-0.598-1.39
		c-8.801-20.338-20.357-39.075-36.421-54.509c-24.576-23.615-56.268-38.581-88.213-49.433
		C658.243,15.732,632.114,11.426,605.859,11.426"/>
	<path clip-path="url(#SVGID_2_)" fill="#3C3A3B" d="M815.931,147.39c0.492,1.214,0.989,2.428,1.489,3.639h0.001
		C816.92,149.818,816.424,148.604,815.931,147.39"/>
	<path clip-path="url(#SVGID_2_)" fill="#515354" d="M836.495,191.231c3.401,11.931,9.646,31.946,18.047,50.915
		c7.392,16.676,11.807,42.32,16.933,65.314c3.365,5.437,7.704,10.468,11.405,15.329c0.071,0.092,0.142,0.185,0.213,0.279
		c-1.39-3.073-2.68-6.197-3.777-9.422c-5.776-16.979-7.081-35.076-12.313-52.253c-5.313-17.421-12.644-34.107-20.619-50.456
		c-0.791-1.622-1.589-3.24-2.391-4.855c-2.116-4.261-4.269-8.503-6.427-12.746C837.208,192.635,836.852,191.935,836.495,191.231"/>
	<path clip-path="url(#SVGID_2_)" fill="#3C3A3B" d="M867.003,261.395L867.003,261.395c5.232,17.177,6.537,35.273,12.313,52.253
		c1.097,3.225,2.387,6.349,3.777,9.422c-1.39-3.073-2.68-6.197-3.777-9.422C873.54,296.668,872.241,278.571,867.003,261.395"/>
	<path clip-path="url(#SVGID_2_)" fill="#3C3A3B" d="M843.993,206.083L843.993,206.083c0.802,1.615,1.6,3.233,2.391,4.855
		C845.593,209.316,844.796,207.698,843.993,206.083"/>
	<path clip-path="url(#SVGID_2_)" fill="#3C3A3B" d="M836.495,191.231C836.495,191.231,836.495,191.23,836.495,191.231
		c0.357,0.703,0.713,1.403,1.071,2.105C837.209,192.636,836.851,191.933,836.495,191.231"/>
	<path clip-path="url(#SVGID_2_)" fill="#383839" d="M383.354,298.759c5.531,3.743,5.456-16.867,5.456-16.867
		c16.825,19.297,22.154,34.329,29.051,39.552c-0.938-12.321,7.496-29.635,7.496-29.635c8.352,17.313,19.207,25.444,25.935,28.967
		c0,0-16.561,61.381-28.75,84.82c-12.171,23.424-29.978,36.533-63.712,37.473c-17.534,0.488-35.575,2.493-47.549,1.536
		c-11.051-0.867-16.92-4.264-12.424-13.707c9.355-19.685,49.662-15.008,49.662-15.008s7.349-13.128,11.232-22.483
		c4.695-11.25,9.373-53.418-5.616-73.102c0,0-0.938,6.573,0,11.251c0,0-20.605-6.556-30.916-38.41c0,0-0.939,17.788,1.86,23.422
		c0,0-9.481,1.499-33.734-14.068c-24.236-15.549-41.499-33.084-59.973-57.155c-24.199-31.55-38.412-49.661-53.417-47.783
		c-40.362,5.038-51.938-2.673-71.206-2.963c21.562-2.674,69.038-0.92,95.53-9.933C228.79,175.672,358.521,237.979,383.354,298.759"
		/>
	<path clip-path="url(#SVGID_2_)" d="M381.574,299.855c4.291,2.521,7.398-1.866,8.289-5.513c1.003-4.104,1.196-8.509,1.19-12.727
		c-1.44,0.387-2.881,0.772-4.322,1.159c6.786,7.854,12.718,16.28,18.248,25.055c3.135,4.971,6.103,10.79,10.802,14.496
		c1.1,0.868,4.418,0.267,4.32-1.484c-0.546-9.787,3.126-20.247,7.347-28.973c-1.444,0.179-2.888,0.359-4.331,0.54
		c5.456,11.081,13.059,21.338,23.691,27.916c0.225,0.139,2.407,1.426,2.215,1.005c-0.059-0.128-0.107-0.348-0.053,0.012
		c0.086,0.579-0.458,1.67-0.611,2.227c-0.797,2.888-1.61,5.77-2.434,8.649c-5.983,20.922-12.218,41.953-20.419,62.129
		c-4.058,9.984-9.004,19.768-16.3,27.81c-8.073,8.898-18.568,14.579-30.214,17.305c-7.312,1.712-14.744,2.138-22.222,2.41
		c-8.998,0.326-17.977,1.002-26.971,1.418c-7.371,0.34-34.522,3.465-29.483-10.797c3.895-11.025,17.011-14.204,27.345-15.301
		c6.589-0.696,13.398-0.762,19.992-0.009c0.904,0.104,2.484-0.389,2.957-1.232c3.97-7.107,7.815-14.367,10.985-21.87
		c2.722-6.443,3.694-13.613,4.361-20.527c1.709-17.718,1.293-39.227-9.741-54.132c-0.803-1.083-4.144-0.147-4.323,1.159
		c-0.52,3.816-0.631,7.77,0.002,11.576c1.203-0.613,2.406-1.225,3.609-1.835c0.713,0.229-0.427-0.14-0.64-0.269
		c-0.724-0.436-1.579-0.72-2.33-1.119c-2.954-1.563-5.671-3.541-8.172-5.754c-9.183-8.124-15.083-19.121-18.901-30.636
		c-0.486-1.466-4.412-0.518-4.484,0.875c-0.378,7.405-1.247,16.853,1.862,23.749c0.847-0.623,1.694-1.244,2.54-1.867
		c-0.416,0.063,0.083,0.024,0.041,0.009c-0.231-0.088-0.59-0.073-0.926-0.059c-0.203,0.007-0.397,0.015-0.549,0.001
		c-2.089-0.189-4.173-0.765-6.167-1.388c-9.379-2.937-18.096-8.168-26.267-13.51c-19.024-12.436-35.423-28.028-49.841-45.538
		c-13.758-16.709-25.591-36.145-42.199-50.285c-4.467-3.805-9.627-7.266-15.544-8.16c-3.622-0.549-7.196,0.134-10.804,0.512
		c-6.025,0.63-12.073,1.036-18.132,1.082c-8.918,0.068-17.725-0.789-26.518-2.21c-6.925-1.118-13.826-2.31-20.857-2.45l-1.166,2.559
		c24.594-2.958,49.506-1.672,74.083-5.18c5.937-0.849,11.872-1.922,17.656-3.523c2.8-0.775,5.422-1.879,8.344-2.045
		c6.187-0.351,12.554,1.144,18.497,2.686c18.853,4.891,36.945,13.106,54.174,22.067c20.598,10.715,40.436,23.185,58.492,37.812
		c17.277,13.997,34.747,30.77,43.418,51.68c0.657,1.584,5.078,0.234,4.482-1.201c-7.709-18.587-22.286-33.851-37.287-46.842
		c-17.733-15.358-37.53-28.387-58.076-39.651c-18.049-9.896-36.972-18.75-56.714-24.712c-6.811-2.059-13.831-3.825-20.951-4.335
		c-7.083-0.508-12.876,1.881-19.705,3.43c-28.189,6.394-57.308,3.857-85.813,7.286c-1.489,0.178-4.047,2.5-1.166,2.557
		c13.669,0.272,27,4.059,40.687,4.566c10.785,0.398,21.236-1.149,31.955-1.714c6.361-0.335,12.161,3.617,16.787,7.555
		c16.607,14.142,28.441,33.576,42.199,50.286c14.169,17.21,30.255,32.533,48.84,44.912c8.912,5.934,18.395,11.648,28.691,14.839
		c2.989,0.925,6.553,1.961,9.737,1.497c0.534-0.079,3.03-0.78,2.54-1.866c-3.037-6.738-2.226-15.879-1.857-23.096
		c-1.495,0.291-2.99,0.584-4.484,0.876c5.027,15.162,15.385,33.722,31.79,39.045c1.004,0.326,3.849-0.388,3.608-1.835
		c-0.6-3.607-0.491-7.31,0.002-10.925c-1.441,0.386-2.882,0.771-4.322,1.157c10.888,14.705,11.128,36.383,9.326,53.804
		c-0.648,6.265-1.534,12.799-3.872,18.688c-3.033,7.636-7.078,14.983-11.081,22.15l2.956-1.234
		c-13.826-1.577-30.246-0.767-42.58,6.161c-5.726,3.214-16.016,13.248-10.291,20.396c2.984,3.725,8.96,4.303,13.339,4.693
		c7.124,0.636,14.331,0.237,21.458-0.133c26.147-1.352,55.291,0.433,76.42-17.83c16.188-13.992,23.325-35.481,29.976-55.123
		c5.836-17.231,11.084-34.696,15.827-52.26c0.099-0.366-0.168-0.666-0.462-0.823c-11.536-6.145-19.793-16.933-25.474-28.47
		c-0.667-1.354-3.766-0.627-4.331,0.541c-4.458,9.22-8.225,19.948-7.648,30.294c1.441-0.495,2.881-0.989,4.321-1.484
		c-4.699-3.707-7.667-9.523-10.802-14.497c-5.53-8.771-11.462-17.198-18.248-25.054c-0.798-0.923-4.324-0.244-4.322,1.158
		c0.004,2.383-0.117,4.776-0.34,7.147c-0.167,1.768-0.383,3.544-0.779,5.276c-0.196,0.857-0.604,1.702-0.767,2.55
		c-0.024,0.123-0.492,0.799-0.461,0.875c0.011,0.029,1.848,0.196,0.913-0.352C383.85,296.909,379.728,298.771,381.574,299.855"/>
	<path clip-path="url(#SVGID_2_)" fill="#383839" d="M820.213,295.112c-4.299,18.583-16.542,70.466-21.888,84.243
		c-6.554,16.868-13.128,23.424-14.068,37.474c-0.902,13.851-55.494,19.521-90.257,12.515c-0.524-0.108-1.047-0.217-1.571-0.325
		c-34.673-7.494,7.495-29.056,29.996-29.996c0,0,3.738-38.41,3.738-46.844c0,0-14.05-9.373-33.734-44.045
		c0,0,15.946,2.619,29.996,8.793c0,0,10.184-27.539,20.08-35.971c0,0,27.703,12.298,34.258,28.171c0,0,16.867-14.122,7.494-32.867
		C784.257,276.26,824.692,276.08,820.213,295.112"/>
	<path clip-path="url(#SVGID_2_)" d="M817.981,295.426c-4.256,18.39-8.639,36.758-13.38,55.026
		c-2.159,8.317-4.322,16.658-6.974,24.831c-3.254,10.026-8.848,18.956-12.646,28.732c-0.903,2.324-1.638,4.709-2.147,7.151
		c-0.471,2.252-0.355,4.709-0.955,6.906c-0.693,2.534-2.924,4.133-5.119,5.345c-7.616,4.207-17.084,5.473-25.588,6.487
		c-11.493,1.373-23.154,1.609-34.706,0.93c-5.759-0.339-11.513-0.948-17.203-1.909c-4.759-0.804-9.957-1.582-14.172-4.076
		c-8.54-5.055,0.992-12.233,6.127-15.196c9.008-5.201,19.874-8.93,30.307-9.463c0.714-0.037,3.028-0.404,3.133-1.48
		c1.253-12.896,2.477-25.806,3.349-38.733c0.204-3.041,1.591-7.404-0.886-9.497c-3.729-3.151-7.099-6.645-10.267-10.359
		c-8.54-10.012-15.672-21.181-22.184-32.588c-1.212,0.579-2.424,1.155-3.635,1.733c10.12,1.686,20.174,4.632,29.591,8.686
		c1.112,0.479,3.566-0.083,4.032-1.337c1.762-4.747,3.781-9.414,5.936-13.993c3.493-7.424,7.429-15.845,13.687-21.383
		c-1.192,0.247-2.383,0.494-3.575,0.74c4.99,2.228,9.812,4.969,14.381,7.955c7.634,4.986,15.698,11.215,19.436,19.794
		c0.562,1.286,3.279,0.306,4.016-0.318c9.833-8.34,13.543-21.977,7.961-33.75c-1.047,0.589-2.093,1.178-3.141,1.767
		C793.909,277.399,821.384,279.286,817.981,295.426c-0.316,1.502,4.168,0.78,4.464-0.626c3.719-17.638-25.764-19.736-37.287-19.706
		c-0.552,0.002-3.678,0.635-3.141,1.767c5.22,11.008,2.312,24.063-7.027,31.983c1.34-0.104,2.678-0.212,4.016-0.317
		c-5.904-13.547-21.699-22.791-34.699-28.594c-1.012-0.452-2.784,0.041-3.575,0.739c-6.242,5.525-10.229,13.51-13.805,20.905
		c-2.47,5.111-4.757,10.34-6.733,15.664c1.345-0.445,2.688-0.891,4.032-1.336c-9.655-4.158-20.021-7.174-30.401-8.904
		c-0.591-0.097-4.309,0.554-3.636,1.733c8.538,14.953,18.166,30.685,31.257,42.172c0.606,0.534,2.069,1.291,2.457,1.998
		c0.527,0.955-0.147,4.337-0.227,5.658c-0.489,7.968-1.2,15.925-1.91,23.878c-0.504,5.633-1.025,11.266-1.572,16.896l3.132-1.479
		c-9.878,0.505-19.748,3.441-28.707,7.548c-5.792,2.657-15.773,7.141-17.446,14.153c-1.88,7.878,11.368,10.135,16.386,11.104
		c12.293,2.378,24.968,3.065,37.468,2.812c11.362-0.231,22.833-1.225,33.921-3.8c6.584-1.529,15.65-3.719,19.991-9.458
		c2.363-3.125,1.795-7.52,2.698-11.178c1.474-5.974,4.366-11.431,7.07-16.914c4.46-9.046,7.755-18.153,10.472-27.831
		c6.452-22.973,11.887-46.25,17.267-69.494C822.787,293.322,818.307,294.019,817.981,295.426"/>
	<path clip-path="url(#SVGID_2_)" d="M20.861,187.682l-0.036,0.019c-6.899-4.714-12.822-10.799-13.418-25.752
		c-0.56-14.159,9.156-15.657,18.781-16.272c1.084-0.234,2.095-0.287,3.034-0.18C42.063,146.76,41.231,176.755,20.861,187.682"/>
	<path clip-path="url(#SVGID_2_)" d="M19.864,186.342l-0.036,0.021l2.722,0.035c-6.322-4.353-10.482-9.945-12.041-17.563
		c-1.505-7.357-2.064-17.568,6.687-20.218c1.513-0.459,3.064-0.736,4.632-0.922c2.094-0.25,4.549-0.742,6.622-0.553
		c2.072,0.187,3.667,1.529,4.771,3.222c3.043,4.665,2.588,11.234,1.331,16.385C32.556,174.919,27.278,182.281,19.864,186.342
		c-2.67,1.464-0.261,3.912,1.994,2.679c7.723-4.23,13.608-11.207,16.37-19.589c2.108-6.397,2.935-14.29-0.511-20.397
		c-3.909-6.923-12.404-5.421-19.019-4.099c-3.81,0.761-7.646,2.34-10.213,5.364c-3.141,3.701-3.566,8.652-3.27,13.305
		c0.356,5.609,1.54,11.198,4.488,16.051c2.332,3.838,5.728,6.821,9.397,9.347c0.764,0.526,1.924,0.436,2.722,0.035l0.036-0.017
		C24.59,187.654,22.15,185.2,19.864,186.342"/>
	<path clip-path="url(#SVGID_2_)" d="M823.961,288.063c7.274-26.254,9.967-53.714,6.59-80.804c-0.114-0.915-4.633-0.013-4.482,1.201
		c3.361,26.957,0.705,54.249-6.533,80.374C819.267,289.805,823.639,289.228,823.961,288.063"/>
	<path clip-path="url(#SVGID_2_)" d="M721.462,399.952c12.345-1.131,25.368,0.666,37.305,3.944c0.97,0.266,2.269-0.122,3.137-0.561
		c0.408-0.207,1.523-0.938,0.537-1.209c-12.494-3.432-26.136-5.218-39.053-4.033c-0.799,0.073-2.542,0.302-2.996,1.082
		C719.945,399.94,720.777,400.016,721.462,399.952"/>
	<path clip-path="url(#SVGID_2_)" d="M347.629,417.093c6.894,0.435,13.764,1.319,20.532,2.702c1.922,0.394,3.837,0.825,5.736,1.318
		c0.534,0.138,1.066,0.282,1.597,0.43c-0.154-0.043-0.054-0.018,0.277,0.084c1.029,0.318,2.247,0.115,3.167-0.446
		c0.468-0.288,1.481-1.315,0.421-1.645c-9.629-2.976-19.935-4.22-29.95-4.849c-0.918-0.059-2.453,0.356-2.966,1.194
		C345.89,416.784,346.92,417.049,347.629,417.093"/>
	<path clip-path="url(#SVGID_2_)" fill="#393B3C" d="M189.774,179.054c-4.699,2.288-9.577,4.125-14.128,5.616
		c-13.347,4.371-26.94,5.864-40.649,5.864c-8.807,0-17.664-0.617-26.532-1.482c-4.442-0.435-9.651-1.422-14.6-1.422
		c-2.835,0-5.585,0.324-8.055,1.264c-6.647,2.527-12.697,6.341-19.483,8.59c-1.747,0.58-3.518,1.08-5.302,1.491
		c10.783-0.574,21.151-3.074,31.93-4.787c3.797-0.604,7.519-0.849,11.201-0.849c0.884,0,1.765,0.015,2.645,0.041
		c0.085-0.021,0.168-0.038,0.249-0.047c28.505-3.428,57.624-0.891,85.812-7.285c2.836-0.643,5.492-1.432,8.137-2.097
		C197.395,182.021,193.644,180.399,189.774,179.054"/>
	<path clip-path="url(#SVGID_2_)" d="M104.155,193.339c-3.682,0-7.404,0.244-11.201,0.849c-10.779,1.713-21.147,4.213-31.93,4.788
		c-0.95,0.219-1.903,0.414-2.86,0.582c11.319-0.166,22.205-2.627,33.474-4.586c4.808-0.836,9.647-1.293,14.495-1.337
		c0.225-0.112,0.452-0.201,0.667-0.255C105.92,193.354,105.039,193.339,104.155,193.339"/>
	<path clip-path="url(#SVGID_2_)" fill="#B3B0AD" d="M29.094,190.921c0.06,0.073,0.121,0.146,0.183,0.216
		c2.182,1.588,4.366,3.272,6.695,4.561c5.201,2.178,11.503,2.854,16.224,2.859h0.044c8.619,0,16.401-3.263,24.005-6.984l0.614-0.302
		c-8.466,2.404-16.371,3.291-23.419,3.291C43.229,194.562,34.816,192.703,29.094,190.921 M154.703,173.641
		c-23.386,0-46.958,5.938-64.205,12.674c0.158-0.021,0.316-0.039,0.475-0.056c1.632-0.171,3.276-0.24,4.926-0.24
		c5.544,0,11.158,0.8,16.61,1.329c8.409,0.816,16.859,1.421,25.264,1.421c14.154,0,28.18-1.714,41.663-7.008
		c2.591-1.016,5.284-2.176,7.944-3.5C177,174.995,165.873,173.641,154.703,173.641"/>
	<path clip-path="url(#SVGID_2_)" d="M187.38,178.262c-2.66,1.323-5.354,2.482-7.944,3.5c-13.482,5.294-27.51,7.007-41.663,7.007
		c-8.406,0-16.855-0.604-25.265-1.42c-5.452-0.53-11.065-1.33-16.609-1.33c-1.65,0-3.294,0.069-4.926,0.241
		c-0.159,0.016-0.317,0.033-0.475,0.055c-1.174,0.458-2.32,0.921-3.433,1.385c-3.478,1.451-6.884,2.627-10.206,3.571l-0.614,0.302
		c-7.604,3.722-15.386,6.985-24.005,6.985h-0.044c-4.721-0.007-11.023-0.683-16.225-2.86c0.843,0.465,1.703,0.878,2.591,1.217
		c3.898,1.487,8.149,2.071,12.282,2.409c2.058,0.167,4.095,0.243,6.119,0.243c0.401,0,0.801-0.003,1.201-0.009
		c0.958-0.168,1.911-0.362,2.861-0.582c1.784-0.412,3.554-0.912,5.301-1.492c6.787-2.249,12.836-6.063,19.484-8.59
		c2.47-0.939,5.22-1.264,8.055-1.264c4.949,0,10.158,0.987,14.6,1.423c8.868,0.864,17.725,1.481,26.532,1.481
		c13.709,0,27.302-1.493,40.649-5.864c4.551-1.49,9.429-3.328,14.128-5.615C188.982,178.779,188.182,178.515,187.38,178.262"/>
	<path clip-path="url(#SVGID_2_)" d="M28.893,190.859c0.128,0.091,0.256,0.184,0.384,0.278c-0.063-0.071-0.123-0.145-0.184-0.217
		C29.026,190.901,28.959,190.879,28.893,190.859"/>
	<path clip-path="url(#SVGID_2_)" fill="#2E2D2C" d="M203.783,185.525c-1.882,0.434-3.698,1.109-5.596,1.635
		c-5.783,1.602-11.719,2.676-17.655,3.523c-19.789,2.824-39.796,2.54-59.679,3.866c2.541,0.375,5.078,0.795,7.618,1.205
		c8.471,1.369,16.953,2.214,25.535,2.214c0.327,0,0.655-0.002,0.983-0.004c6.059-0.045,12.107-0.452,18.133-1.082
		c2.644-0.276,5.27-0.717,7.911-0.717c0.961,0,1.925,0.058,2.893,0.205c5.182,0.784,9.784,3.536,13.849,6.763
		c1.297,1.007,2.548,2.083,3.76,3.204c15.466,13.894,26.844,32.293,39.946,48.251c4.589,5.539,9.35,10.913,14.328,16.068
		c10.8,11.12,22.63,21.153,35.7,29.697c8.171,5.342,16.888,10.573,26.268,13.51c1.375,0.43,2.793,0.838,4.226,1.11
		c-2.101-6.615-1.367-14.909-1.027-21.555c0.046-0.899,1.695-1.613,2.991-1.613c0.713,0,1.32,0.217,1.493,0.738
		c1.038,3.12,2.317,6.432,3.844,9.76c3.643,7.85,8.517,15.09,15.056,20.875c2.207,1.952,4.582,3.721,7.138,5.186
		c-0.12-2.6,0.045-5.224,0.394-7.785c0.123-0.906,1.768-1.633,3.032-1.633c0.559,0,1.044,0.142,1.29,0.475
		c11.035,14.904,11.451,36.414,9.741,54.131c-0.667,6.914-1.639,14.084-4.36,20.527c-3.001,7.101-6.607,13.985-10.351,20.729
		c3.75,0.266,7.533,0.624,11.296,1.138c3.795-5.466,17.838-28.281,20.814-70.341c3.45-48.723-28.749-42.638-40.939-62.863
		c-8.512-14.155-21.153-22.678-32.632-22.677c-4.936,0.001-9.66,1.577-13.743,4.962c-2.486,2.053-5.345,3.072-8.55,3.072
		c-14.328,0-35.531-20.416-60.796-60.248C220.491,198.084,212.654,190.801,203.783,185.525"/>
	<path clip-path="url(#SVGID_2_)" d="M329.305,302.306c4.843,10.559,12.18,21.274,22.226,26.472
		c-0.148-2.702,0.023-5.424,0.387-8.104c0.097-0.71,2.126-1.445,3.395-1.445c0.434,0,0.778,0.086,0.927,0.287
		c11.003,14.92,11.425,36.338,9.681,54.052c-0.642,6.517-1.509,13.345-3.952,19.472c-2.988,7.493-6.901,14.715-10.831,21.763
		c0.035,0.003,0.071,0.004,0.107,0.007c3.744-6.743,7.349-13.628,10.35-20.729c2.722-6.442,3.694-13.612,4.361-20.526
		c1.709-17.718,1.293-39.229-9.741-54.132c-0.246-0.332-0.731-0.476-1.29-0.476c-1.264,0-2.909,0.729-3.032,1.634
		c-0.35,2.562-0.515,5.186-0.394,7.784c-2.557-1.464-4.932-3.231-7.138-5.184C337.821,317.395,332.947,310.153,329.305,302.306
		 M255.81,270.656c9.101,9.427,18.926,18.119,29.745,25.744c9.504,6.698,19.657,13.221,30.685,17.114
		c1.9,0.67,3.858,1.297,5.847,1.693c-2.142-6.569-1.446-14.825-1.109-21.462c0.042-0.828,2.092-1.686,3.415-1.686
		c0.537,0,0.954,0.143,1.067,0.484c-0.172-0.521-0.779-0.738-1.492-0.738c-1.296,0-2.946,0.714-2.991,1.613
		c-0.34,6.646-1.075,14.939,1.026,21.555c-1.433-0.273-2.851-0.681-4.226-1.111c-9.379-2.935-18.096-8.168-26.267-13.509
		C278.439,291.811,266.609,281.777,255.81,270.656 M201.536,206.338c2.872,2.653,5.527,5.559,8.057,8.396
		c8.476,9.506,16.12,19.736,23.884,29.821c2.613,3.394,5.279,6.744,8.005,10.034C228.379,238.632,217.001,220.231,201.536,206.338
		 M200.998,183.951c-2.645,0.665-5.301,1.453-8.136,2.098c-28.189,6.393-57.308,3.855-85.813,7.285
		c-0.08,0.009-0.163,0.024-0.249,0.047c-0.214,0.052-0.442,0.141-0.666,0.254c0.255-0.002,0.51-0.003,0.766-0.003
		c3.185,0,6.374,0.178,9.558,0.547c6.954,0.802,13.815,2.247,20.766,3.082c5.681,0.681,11.381,0.989,17.087,0.989
		c4.437,0,8.877-0.188,13.311-0.527c4.464-0.342,8.763-1.115,12.998-1.115c3.378,0.001,6.716,0.492,10.063,2.084
		c2.52,1.198,4.873,2.721,7.092,4.443c-4.064-3.229-8.666-5.98-13.849-6.764c-0.967-0.147-1.931-0.205-2.893-0.205
		c-2.641,0-5.267,0.44-7.911,0.718c-6.026,0.63-12.074,1.036-18.133,1.082c-0.328,0.002-0.657,0.004-0.984,0.004
		c-8.582,0-17.064-0.846-25.534-2.214c-2.54-0.41-5.077-0.83-7.618-1.205c19.882-1.327,39.89-1.042,59.678-3.867
		c5.938-0.848,11.872-1.921,17.656-3.524c1.897-0.523,3.713-1.2,5.596-1.634C202.865,184.979,201.937,184.456,200.998,183.951"/>
	<path clip-path="url(#SVGID_2_)" fill="#2E2D2C" d="M337.911,416.643c-3.435,0-6.872,0.191-10.25,0.55
		c-10.334,1.096-23.451,4.274-27.345,15.3c-2.59,7.332,3.325,10.068,10.689,10.951c-1.207-4.79-1.354-12.788,5.298-17.477
		c7.237-5.095,27.705-7.384,38.474-8.26c-2.102-0.229-4.209-0.416-6.318-0.559c-0.194,0.03-0.381,0.049-0.553,0.049
		c-0.089,0-0.173-0.005-0.253-0.015C344.439,416.816,341.176,416.643,337.911,416.643"/>
	<path clip-path="url(#SVGID_2_)" d="M334.895,416.146c-11.736,0-24.556,2.268-31.502,10.732c-2.582,3.147-5.468,8.768-2.681,12.556
		c2.144,2.913,6.391,3.794,10.322,4.123c-0.01-0.038-0.021-0.076-0.029-0.113c-7.364-0.883-13.279-3.619-10.689-10.951
		c3.893-11.025,17.011-14.204,27.345-15.301c3.378-0.357,6.815-0.549,10.25-0.549c3.265,0,6.528,0.174,9.742,0.54
		c0.079,0.009,0.164,0.015,0.253,0.015c0.172,0,0.359-0.019,0.552-0.05c-0.276-0.02-0.553-0.036-0.829-0.055
		c-0.351-0.021-0.779-0.097-1.056-0.276C343.016,416.426,339.022,416.146,334.895,416.146"/>
	<path clip-path="url(#SVGID_2_)" d="M351.137,414.801c-0.134,0.24-0.268,0.479-0.401,0.721c-0.517,0.926-2.151,1.372-3.266,1.372
		c-0.138,0-0.268-0.007-0.386-0.021c-0.17-0.019-0.34-0.039-0.511-0.057c0.277,0.179,0.705,0.256,1.056,0.277
		c0.276,0.018,0.553,0.034,0.829,0.055c2.11,0.143,4.217,0.33,6.319,0.559c4.118-0.335,6.817-0.463,6.817-0.463
		s0.344-0.43,0.946-1.298c-3.763-0.513-7.546-0.873-11.296-1.137C351.209,414.807,351.173,414.805,351.137,414.801"/>
	<path clip-path="url(#SVGID_2_)" fill="#D1D3D4" d="M898.2,350.986c-7.547-18.693-29.594-39.107-33.343-52.228
		c0,0,4.685,26.24,6.56,30.925c0,0-12.182-6.561-14.994-12.183c0,0-1.874,17.805,5.623,27.176c0,0-14.057-7.497-16.868-13.119
		c0,0-14.056,19.197,0,41.46c14.057,22.264,45.917,29.765,55.289,29.763C900.467,402.78,907.178,373.227,898.2,350.986"/>
	<path clip-path="url(#SVGID_2_)" d="M900.44,350.387c-4.208-10.114-10.97-18.94-17.561-27.598
		c-5.72-7.512-12.964-15.432-15.781-24.632c-0.535-1.745-4.804-0.594-4.482,1.202c0.818,4.575,1.678,9.145,2.576,13.706
		c1.118,5.681,1.925,11.778,3.984,17.218c1.334-0.587,2.668-1.175,4.002-1.763c-5.294-2.873-11.68-6.541-14.685-11.938
		c-0.722-1.296-4.186-0.187-4.323,1.158c-0.936,9.268,0.042,20.239,5.806,27.855c1.276-0.693,2.554-1.389,3.831-2.082
		c-5.75-3.085-13.292-7.012-16.561-12.874c-0.767-1.377-3.545-0.085-4.178,0.792c-8.229,11.396-8.087,27.578-1.632,39.633
		c8.067,15.062,23.974,24.39,39.78,29.496c5.868,1.896,12.202,3.563,18.413,3.626c1.048,0.011,2.809-0.404,3.088-1.646
		C906.466,385.839,906.702,366.445,900.44,350.387c-0.676-1.734-5.119-0.434-4.482,1.2c6.2,15.902,5.967,34.896,2.256,51.432
		c1.029-0.548,2.059-1.098,3.087-1.647c-6.86-0.068-13.887-2.152-20.284-4.45c-9.455-3.396-18.63-8.389-25.938-15.352
		c-13.243-12.618-19.249-34.02-7.794-49.884c-1.392,0.263-2.785,0.526-4.178,0.792c3.37,6.044,11.265,10.191,17.176,13.363
		c1.061,0.568,5.114-0.389,3.832-2.083c-5.438-7.188-6.323-17.76-5.44-26.495c-1.441,0.386-2.881,0.771-4.322,1.156
		c3.099,5.567,9.85,9.471,15.301,12.429c0.944,0.513,4.642-0.076,4.004-1.766c-2.06-5.438-2.865-11.536-3.984-17.218
		c-0.897-4.562-1.758-9.129-2.576-13.707c-1.494,0.402-2.989,0.802-4.482,1.202c2.676,8.74,9.277,16.286,14.715,23.422
		c6.905,9.057,14.218,18.209,18.627,28.806C896.676,353.313,901.107,351.99,900.44,350.387"/>
	<path clip-path="url(#SVGID_2_)" d="M829.803,221.921c0,0-0.307,6.952-0.108,18.005
		C829.855,234.291,829.91,228.277,829.803,221.921"/>
	<path clip-path="url(#SVGID_2_)" fill="#393B3C" d="M830.343,256.496c-1.348,10.609-3.496,21.131-6.354,31.463v0.035
		c0.011,0.074,0.017,0.152,0.017,0.235c0.018,6.314,0.258,12.663,0.803,18.985c1.19,13.752,3.815,27.378,8.768,40.279
		c0.042,0.109,0.084,0.222,0.127,0.33c0.003,0.01,0.007,0.019,0.01,0.026c0.003,0.007,0.006,0.015,0.009,0.022
		c0.949,2.441,1.99,4.848,3.121,7.198c-0.619-8.32,1.311-16.834,6.226-23.64c0.09-0.126,0.224-0.259,0.39-0.393
		C834.989,306.422,831.621,278.109,830.343,256.496"/>
	<path clip-path="url(#SVGID_2_)" d="M833.723,347.874c0.95,2.443,1.991,4.851,3.122,7.209c0-0.003,0-0.009-0.001-0.012
		C835.714,352.721,834.672,350.314,833.723,347.874 M823.989,287.994c0.022,6.395,0.267,12.82,0.819,19.221
		c-0.545-6.323-0.784-12.671-0.803-18.985C824.006,288.146,824.001,288.068,823.989,287.994"/>
	<path clip-path="url(#SVGID_2_)" d="M833.705,347.824c0.003,0.01,0.006,0.019,0.01,0.026
		C833.711,347.843,833.708,347.834,833.705,347.824"/>
	<line clip-path="url(#SVGID_2_)" x1="824.006" y1="288.229" x2="824.006" y2="288.229"/>
	<path clip-path="url(#SVGID_2_)" d="M829.694,240.105c-0.723,23.847-3.699,40.745-7.376,47.402c0.3-0.053,0.586-0.085,0.834-0.085
		c0.494,0,0.836,0.123,0.837,0.426c0,0.037,0,0.072,0,0.11c2.858-10.332,5.006-20.854,6.354-31.462
		C829.984,250.429,829.79,244.888,829.694,240.105"/>
	<path clip-path="url(#SVGID_2_)" fill="#B3B0AD" d="M845.004,335.331c-6.456,12.05-4.127,26.447,3.082,37.73
		c6.112,7.628,13.483,14.179,22.073,19.125c3.513,1.836,7.165,3.408,10.859,4.735c5.512,1.979,11.492,3.801,17.431,4.311
		c0.034-0.331,0.066-0.66,0.099-0.99c-3.197-3.889-10.984-12.301-27.645-25.581C859.363,365.46,851.024,351.343,845.004,335.331"/>
	<path clip-path="url(#SVGID_2_)" d="M870.159,392.187c1.621,0.934,3.286,1.812,4.993,2.626c5.977,2.856,12.371,4.945,18.891,6.122
		c1.448,0.261,2.908,0.476,4.372,0.628c0.011-0.109,0.023-0.22,0.034-0.33c-5.939-0.51-11.919-2.331-17.431-4.311
		C877.324,395.595,873.672,394.022,870.159,392.187 M843.46,331.038c-0.166,0.135-0.3,0.268-0.39,0.394
		c-4.915,6.806-6.844,15.319-6.226,23.64c0.001,0.003,0.001,0.008,0.001,0.011c3.081,6.423,6.833,12.479,11.241,17.979
		c-7.209-11.283-9.538-25.681-3.082-37.729C844.472,333.914,843.957,332.482,843.46,331.038"/>
	<path clip-path="url(#SVGID_2_)" fill="#393B3C" d="M676.991,318.243c-0.353,0.059-0.709,0.106-1.067,0.146
		c0.347,0.09,0.693,0.173,1.04,0.249C676.971,318.506,676.98,318.375,676.991,318.243"/>
	<path clip-path="url(#SVGID_2_)" d="M677.013,318.239c-0.007,0.001-0.015,0.004-0.022,0.005c-0.011,0.131-0.02,0.262-0.027,0.394
		c-0.347-0.075-0.693-0.158-1.04-0.248c-0.283,0.032-0.565,0.058-0.852,0.078c0.629,0.196,1.26,0.371,1.89,0.521
		C676.971,318.735,676.989,318.484,677.013,318.239"/>
	<path clip-path="url(#SVGID_2_)" fill="#2E2D2C" d="M729.066,399.613c-1.883,0-3.761,0.061-5.624,0.184
		c-0.71,0.261-1.538,0.374-1.917,0.393c-10.434,0.533-21.299,4.264-30.308,9.463c-2.319,1.339-5.535,3.537-7.578,6.012
		c-2.105,2.744-2.778,5.767,0.181,8.315c0.37,0.296,0.791,0.585,1.27,0.869c2.818,1.667,6.074,2.568,9.345,3.222
		c4.846-12.457,26.016-21.513,44.933-27.897C735.935,399.81,732.488,399.613,729.066,399.613 M696.233,310.242
		c0.871,1.495,1.753,2.985,2.647,4.469c5.374,8.888,11.234,17.509,17.973,25.41c0.874,1.022,1.763,2.03,2.67,3.018
		c2.244,2.385,4.598,4.616,7.019,6.845c0.192,0.166,0.384,0.331,0.579,0.495c2.476,2.093,1.09,6.456,0.885,9.497
		c-0.855,12.685-2.049,25.353-3.278,38.005c2.263-0.171,4.545-0.253,6.838-0.253c3.328,0,6.679,0.173,10.02,0.497
		c0.368-6.376,1.918-35.789-0.073-47.238c-0.964-5.597-14.213-16.1-26.863-35.428C708.664,313.337,702.481,311.554,696.233,310.242"
		/>
	<path clip-path="url(#SVGID_2_)" d="M683.821,423.979c0.654,0.564,1.486,1.105,2.52,1.615c2.492,1.228,5.229,2.045,8.028,2.648
		c0.021-0.058,0.043-0.114,0.066-0.173c-3.271-0.654-6.527-1.554-9.344-3.221C684.612,424.564,684.19,424.275,683.821,423.979
		 M723.442,399.797c-0.302,0.02-0.604,0.042-0.904,0.064c-0.41,0.088-0.795,0.133-1.061,0.148
		c-10.753,0.564-22.074,4.39-31.229,10.018c-2.372,1.458-4.94,3.46-6.609,5.636c2.043-2.474,5.259-4.672,7.579-6.011
		c9.008-5.2,19.874-8.929,30.307-9.463C721.904,400.171,722.732,400.059,723.442,399.797 M726.542,349.983
		c0.208,0.193,0.417,0.385,0.626,0.576c2.379,2.184,1.031,6.437,0.819,9.543c-0.864,12.642-2.053,25.267-3.278,37.88
		c0.008-0.001,0.012-0.001,0.019-0.002c1.229-12.653,2.424-25.321,3.279-38.005c0.204-3.041,1.59-7.404-0.886-9.497
		C726.927,350.314,726.734,350.149,726.542,349.983 M698.881,314.711c5.445,9.015,11.381,17.761,18.236,25.756
		c0.787,0.916,1.589,1.804,2.406,2.673c-0.907-0.988-1.796-1.996-2.67-3.02C710.116,332.22,704.254,323.6,698.881,314.711
		 M694.72,307.62c0.501,0.875,1.005,1.75,1.513,2.622c6.248,1.312,12.431,3.095,18.417,5.316c-0.738-1.127-1.474-2.285-2.205-3.472
		c-3.261-0.939-6.506-1.927-9.771-2.848c-0.263-0.073-2.16-0.582-2.989-0.823c-0.869-0.153-2.58-0.481-2.842-0.518
		C696.144,307.803,695.434,307.703,694.72,307.62"/>
	<path clip-path="url(#SVGID_2_)" d="M731.566,397.729c-2.292,0-4.575,0.082-6.837,0.253c-0.007,0.001-0.012,0.001-0.019,0.002
		c-0.015,0.145-0.029,0.294-0.043,0.438c-0.079,0.805-1.174,1.237-2.129,1.44c0.301-0.024,0.602-0.045,0.904-0.066
		c1.864-0.123,3.741-0.182,5.624-0.182c3.422,0,6.869,0.196,10.302,0.558c0.719-0.243,1.434-0.48,2.145-0.715
		c0,0,0.028-0.438,0.074-1.232C738.246,397.901,734.895,397.729,731.566,397.729"/>
	<path clip-path="url(#SVGID_2_)" fill="#383839" d="M451.959,321.298c-0.235-0.161-0.452-0.343-0.667-0.522
		C451.526,320.901,451.76,321.064,451.959,321.298"/>
	<path clip-path="url(#SVGID_2_)" d="M451.96,322.071c-0.154,0-0.305-0.046-0.441-0.14c-0.257-0.174-0.492-0.368-0.725-0.563
		c-0.305-0.258-0.362-0.701-0.139-1.03c0.223-0.327,0.665-0.426,1.009-0.243c0.372,0.204,0.652,0.427,0.885,0.705
		c0.251,0.295,0.245,0.731-0.015,1.018C452.38,321.983,452.171,322.071,451.96,322.071"/>
	<path clip-path="url(#SVGID_2_)" d="M690.592,309.016c10.146,1.69,20.284,4.618,29.724,8.684c0.977,0.421,3.886,0.015,4.322-1.159
		c1.815-4.889,3.9-9.694,6.131-14.406c3.535-7.467,7.485-15.769,13.77-21.333c-1.381,0.309-2.761,0.616-4.142,0.926
		c12.706,5.673,28.355,14.758,34.126,28.001c0.508,1.166,3.688-0.259,4.274-0.755c9.702-8.229,13.183-21.756,7.702-33.313
		c-1.229,0.511-2.459,1.023-3.689,1.535c10.698-0.029,38.654,1.881,35.191,18.305c-0.22,1.04,4.185,0.364,4.425-0.773
		c3.658-17.354-25.343-19.433-36.72-19.401c-0.481,0.002-4.145,0.573-3.689,1.535c5.323,11.224,2.185,24.388-7.285,32.421
		c1.424-0.251,2.848-0.503,4.273-0.755c-5.843-13.408-21.528-22.601-34.389-28.342c-1.187-0.529-3.202,0.093-4.142,0.926
		c-6.217,5.503-10.196,13.597-13.731,20.963c-2.389,4.977-4.608,10.063-6.53,15.242c1.441-0.387,2.881-0.772,4.322-1.157
		c-9.632-4.149-19.914-7.182-30.268-8.908C693.196,307.073,689.347,308.81,690.592,309.016"/>
	<path clip-path="url(#SVGID_2_)" d="M901.414,401.793c1.097,0.002-1.439-0.09-1.828-0.121c-1.858-0.149-3.709-0.405-5.543-0.736
		c-6.521-1.178-12.914-3.268-18.891-6.122c-19.796-9.457-33.804-27.075-41.575-47.319c-7.274-18.953-9.528-39.469-9.588-59.645
		c-0.003-1.057-4.153,0.077-4.458,0.968c-2.514,7.363-3.614,15.624-5.415,23.203c-2.442,10.274-4.935,20.539-7.526,30.778
		c-2.336,9.231-4.71,18.466-7.423,27.597c-2.799,9.426-6.861,18.136-11.164,26.968c-2.394,4.912-4.511,9.924-5.433,15.341
		c-0.58,3.411-0.219,6.412-2.915,8.905c-5.966,5.516-16.417,6.779-24.062,7.913c-11.548,1.715-23.336,2.147-34.993,1.674
		c-5.747-0.232-11.49-0.704-17.188-1.492c-5.654-0.781-11.893-1.557-17.072-4.109c-9.412-4.643-2.119-11.863,3.907-15.567
		c9.155-5.628,20.476-9.453,31.229-10.018c0.887-0.047,3.078-0.439,3.189-1.587c1.241-12.759,2.447-25.53,3.321-38.319
		c0.212-3.107,1.56-7.36-0.819-9.543c-3.526-3.236-6.921-6.444-10.05-10.094c-8.663-10.104-15.857-21.402-22.448-32.935
		c-0.251-0.438-0.857-0.394-1.293-0.385c-8.494,0.187-17.507,4.215-16.317,14.029c1.225-0.528,2.45-1.057,3.675-1.584
		c-9.459-0.705-19.188-7.87-26.49-13.189c-0.691-0.502-4.793,0.242-4.346,1.392c2.426,6.229,5.989,12.919,11.369,17.057
		c0.833-0.572,1.664-1.143,2.496-1.712c-24.194,3.886-52.87-1.766-70.432-19.551c-0.812-0.823-3.091,0.204-3.838,0.653
		c0.634-0.381-0.719,0.384-1.014,0.531c-1.222,0.608-2.458,1.176-3.72,1.696c-5.059,2.078-10.373,3.549-15.74,4.57
		c-20.069,3.823-40.755,1.56-60.316-3.824c-1.087-0.301-3.127,0.131-3.871,1.036c-3.947,4.814-0.819,9.888,3.694,12.843
		c0.264-0.391,0.528-0.78,0.79-1.169c0.26-0.127-0.777,0.335-1.224,0.382c-2.085,0.215-3.953,0.531-6.087,0.336
		c-7.634-0.702-14.379-4.811-20.186-9.562c-0.864-0.707-4.276,0.136-4.346,1.39c-0.36,6.498,1.475,14.97,9.24,15.391
		c0.211-0.529,0.423-1.058,0.634-1.587c-11.406,4.441-24.646,1.011-33.952-6.29c-0.83-0.651-4.027,0.065-4.322,1.157
		c-3.278,12.137-6.851,24.205-10.607,36.201c-5.703,18.21-11.235,37.576-21.167,54.023c-5.349,8.859-12.405,16.695-21.404,21.941
		c-10.718,6.249-23.146,8.305-35.389,8.75c-14.871,0.54-29.89,2.332-44.775,1.734c-4.595-0.185-11.955-0.193-15.02-4.358
		c-2.787-3.788,0.098-9.41,2.681-12.556c9.507-11.587,30.014-11.562,43.691-10.006c1.081,0.123,3.072-0.312,3.652-1.352
		c4.064-7.277,8.143-14.734,11.232-22.483c2.442-6.126,3.311-12.955,3.951-19.471c1.745-17.713,1.322-39.131-9.681-54.051
		c-0.583-0.791-4.192,0.204-4.322,1.157c-0.516,3.802-0.644,7.689-0.024,11.481c1.357-0.506,2.713-1.011,4.07-1.517
		c-15.761-5.129-25.705-23.675-30.503-38.094c-0.394-1.184-4.423,0.036-4.482,1.2c-0.373,7.317-1.18,16.6,1.859,23.422
		c0.878-0.508,1.755-1.017,2.633-1.521c0.915-0.132-1.094-0.086-1.774-0.173c-2.544-0.326-5.047-1.108-7.456-1.957
		c-11.028-3.896-21.182-10.416-30.686-17.115c-20.25-14.271-37.021-32.289-52.078-51.846c-7.763-10.085-15.408-20.315-23.883-29.821
		c-5.428-6.085-11.43-12.485-18.91-16.042c-7.544-3.587-15.036-1.585-23.062-0.968c-10.135,0.776-20.299,0.749-30.397-0.463
		c-6.951-0.835-13.813-2.279-20.767-3.082c-8.287-0.957-16.6-0.638-24.818,0.793c-13.678,2.378-26.787,5.495-40.795,4.351
		c-4.134-0.338-8.385-0.922-12.283-2.408c-4.464-1.703-8.271-5.313-12.297-7.85c-8.003-5.042-13.897-10.891-15.811-20.512
		c-1.082-5.438-1.923-12.761,1.751-17.452c3.38-4.317,9.586-4.209,14.56-4.521c4.819-0.302,10.116-0.387,14.543-2.578
		c4.219-2.089,7.582-6.384,10.195-10.187c5.242-7.632,6.473-17.683,12.887-24.509c4.288-4.565,10.192-6.906,15.429-10.159
		c4.194-2.605,8.181-5.566,11.741-8.995c6.133-5.908,10.548-13.508,17.16-18.918c7.941-6.497,17.597-11.228,27.028-15.124
		c6.056-2.5,19.122-9.247,22.394-0.027c0.584,1.645,0.82,3.503,0.705,5.247c-0.029,0.436,1.106,0.399,1.293,0.386
		c6.742-0.478,13.482-0.974,20.221-1.495c9.954-0.771,19.965-2.162,29.961-1.971c18.498,0.356,35.812,7.968,54.204,8.554
		c2.539,0.081,5.075-0.026,7.61-0.133c2.129-0.09,4.258-0.18,6.392-0.158c8.658,0.09,17.111,1.826,25.617,3.246
		c7.744,1.291,15.682,2.023,23.495,0.905c6.597-0.943,12.709-3.388,18.82-5.933c9.277-3.864,18.894-7.26,28.97-8.165
		c10.326-0.924,20.656,0.388,30.91,1.516c18.009,1.983,35.325,2.183,52.272-5.063c15.147-6.476,29.783-14.032,45.081-20.184
		c17.766-7.145,36.09-12.991,54.886-16.731c41.793-8.317,84.52-5.515,124.874,8.191c31.944,10.851,63.636,25.816,88.212,49.432
		c16.064,15.434,27.62,34.171,36.421,54.508c3.67,8.483,6.93,17.135,10.529,25.647c7.539,17.831,16.774,34.877,25.379,52.2
		c8.892,17.9,17.171,36.163,23.01,55.313c5.238,17.175,6.537,35.271,12.313,52.252c3.316,9.749,8.396,18.583,12.701,27.886
		c4.803,10.379,7.115,21.303,7.564,32.718c0.379,9.647-0.309,19.311-1.332,28.896c-0.137,1.277,4.311,0.415,4.435-0.737
		c1.67-15.636,2.765-31.945-0.958-47.388c-2.327-9.651-7.02-18.217-11.378-27.048c-5.794-11.743-9.625-24.029-11.792-36.947
		c-3.532-21.053-9.742-41.205-18.202-60.797c-13.288-30.765-30.154-59.749-42.685-90.874c-7.684-19.087-16.342-37.646-29.391-53.733
		c-19.042-23.476-45.06-39.916-72.454-52.035c-38.61-17.082-79.882-26.521-122.213-23.83
		c-36.793,2.335-72.204,13.085-105.787,27.907c-14.92,6.586-30.151,16.251-46.432,18.903c-11.511,1.876-22.998,0.602-34.494-0.672
		c-9.091-1.007-18.188-2.015-27.31-1.466c-9.315,0.559-18.439,2.892-27.181,6.093c-6.784,2.485-13.314,5.976-20.378,7.627
		c-17.173,4.012-34.625-3.609-51.899-3.615c-1.867,0-3.732,0.08-5.596,0.158c-2.757,0.118-5.514,0.235-8.273,0.095
		c-8.479-0.427-16.742-2.543-24.973-4.468c-10.136-2.37-20.347-4.091-30.786-4.063c-9.431,0.023-18.85,1.263-28.246,1.99
		c-6.738,0.522-13.479,1.018-20.221,1.494c0.431,0.128,0.862,0.256,1.293,0.387c1.209-18.307-22.761-7.995-31.34-4.314
		c-9.337,4.008-18.791,8.742-26.738,15.15c-6.748,5.44-11.254,13.037-17.416,19.071c-4.45,4.361-9.621,7.894-15.04,10.938
		c-4.779,2.685-9.571,5.146-13.208,9.37c-6.379,7.402-7.555,17.754-13.479,25.529c-2.483,3.26-5.567,6.885-9.624,7.972
		c-3.645,0.975-7.724,0.671-11.468,1.008c-4.23,0.38-8.517,1.003-12.335,2.963c-9.189,4.718-8.508,16.335-5.968,24.976
		c2.92,9.93,10.488,14.632,18.691,19.952c3.438,2.231,6.297,4.911,10.213,6.258c3.951,1.359,8.209,1.95,12.359,2.287
		c10.98,0.891,21.69-0.856,32.376-2.602c11.881-1.942,23.732-3.882,35.893-2.203c7.457,1.031,14.834,2.511,22.34,3.191
		c11.386,1.03,22.859,0.59,34.21-0.641c4.292-0.465,7.944-0.977,12.057,0.56c3.77,1.409,7.126,3.819,10.183,6.396
		c8.408,7.081,15.342,15.938,22.13,24.521c16.94,21.422,33.005,43.079,54.531,60.235c10.136,8.079,21.082,15.555,32.783,21.181
		c5.423,2.606,11.429,5.237,17.527,5.631c0.896,0.055,1.793,0.058,2.681-0.07c0.311-0.044,2.999-0.702,2.633-1.521
		c-3.039-6.822-2.232-16.106-1.859-23.422c-1.495,0.399-2.988,0.801-4.482,1.2c4.944,14.859,15.176,33.473,31.329,38.729
		c0.778,0.254,4.276-0.249,4.069-1.519c-0.596-3.634-0.519-7.374-0.024-11.02c-1.44,0.386-2.881,0.772-4.322,1.159
		c10.979,14.886,11.203,36.837,9.328,54.455c-0.695,6.534-1.709,13.233-4.287,19.32c-3.106,7.336-6.887,14.438-10.771,21.39
		c1.217-0.451,2.436-0.903,3.653-1.354c-13.746-1.563-29.847-0.748-42.285,5.735c-5.859,3.052-16.706,12.609-11.409,20.108
		c2.57,3.642,8.241,4.302,12.286,4.722c6.989,0.727,14.117,0.362,21.116,0.016c26.095-1.292,55.688,0.574,77.121-17.107
		c16.617-13.709,23.894-35.131,30.608-54.856c5.96-17.506,11.296-35.261,16.118-53.117c-1.441,0.386-2.882,0.773-4.323,1.159
		c11.089,8.699,26.525,11.07,39.763,5.917c0.673-0.263,2.382-1.492,0.634-1.586c-6.796-0.369-7.924-9.257-7.627-14.625
		c-1.449,0.464-2.897,0.927-4.345,1.39c9.091,7.44,22.708,13.678,34.335,8.025c0.244-0.12,1.364-0.794,0.791-1.169
		c-3.824-2.503-7.371-7.17-3.82-11.502c-1.29,0.345-2.58,0.689-3.87,1.036c20.778,5.719,42.818,7.914,64.091,3.658
		c8.084-1.616,16.68-3.905,23.825-8.196c-1.28,0.218-2.56,0.436-3.84,0.653c18.428,18.663,48.621,23.873,73.858,19.817
		c0.306-0.048,3.442-0.985,2.496-1.712c-5.275-4.056-8.712-10.556-11.096-16.677c-1.448,0.463-2.897,0.927-4.345,1.388
		c7.714,5.619,17.845,12.833,27.83,13.578c0.774,0.057,3.824-0.362,3.675-1.584c-0.836-6.902,3.262-10.709,9.94-10.857
		c-0.431-0.129-0.862-0.257-1.293-0.386c8.547,14.956,18.256,30.86,31.438,42.289c0.53,0.459,1.973,1.213,2.284,1.841
		c0.541,1.091-0.145,4.33-0.226,5.688c-0.477,7.921-1.184,15.828-1.889,23.729c-0.515,5.783-1.048,11.564-1.61,17.343
		c1.062-0.528,2.125-1.059,3.188-1.586c-9.975,0.524-19.93,3.555-28.978,7.684c-5.635,2.572-15.796,7.133-17.247,14.06
		c-1.801,8.602,14.425,10.456,19.516,11.299c12.309,2.037,24.879,2.563,37.337,2.13c11.418-0.396,23.038-1.531,34.091-4.549
		c5.738-1.566,14.745-4.002,17.697-9.878c0.795-1.585,0.72-3.214,0.937-4.953c0.416-3.343,1.257-6.599,2.426-9.757
		c2.254-6.091,5.547-11.756,8.241-17.654c4.149-9.077,6.83-18.575,9.423-28.19c3.457-12.819,6.632-25.713,9.743-38.622
		c1.406-5.838,2.794-11.683,4.165-17.533c1.075-4.588,1.724-9.547,3.242-13.992c-1.487,0.323-2.972,0.647-4.458,0.971
		c0.091,31.123,5.642,64.951,27.072,88.97c11.164,12.511,26.34,21.313,42.812,24.561c3.324,0.655,6.729,1.178,10.126,1.185
		C900.843,403.769,904.382,401.8,901.414,401.793"/>
	<path clip-path="url(#SVGID_2_)" fill="#D1D3D4" d="M185.736,58.887c-36.333,17.715-83.792,47.929-89.299,66.511
		c-7.495,25.301-25.301,20.623-36.552,27.178c-11.25,6.555-28.117,6.555-28.117,6.555s-23.747-7.097-17.426-11.124l0.072-0.054
		c0.83-0.505,2.149-0.957,4.063-1.337c0.271-0.053,0.542-0.108,0.813-0.163c0.271-0.053,0.559-0.089,0.849-0.143
		c1.047-0.162,2.203-0.308,3.521-0.435c0.271-0.018,0.524-0.036,0.812-0.071c0.542-0.036,1.12-0.091,1.716-0.128
		c5.671-0.396,10.565-1.3,14.808-2.601c19.775-5.995,25.661-20.116,31.079-27.05c6.556-8.436,14.989-13.112,32.795-32.795
		c17.806-19.687,56.217-22.501,56.217-22.501S174.649,59.772,185.736,58.887"/>
	<path clip-path="url(#SVGID_2_)" d="M184.755,57.605c-16.542,8.095-32.65,17.179-48.032,27.312
		c-12.907,8.502-26.44,17.828-36.313,29.897c-3.851,4.709-5.455,9.423-7.713,14.949c-2.772,6.785-7.258,12.141-14.109,14.969
		c-5.027,2.075-10.488,2.791-15.578,4.687c-2.802,1.044-5.286,2.664-8.033,3.828c-4.173,1.766-8.687,2.807-13.159,3.464
		c-2.68,0.394-5.385,0.658-8.091,0.771c-0.567,0.023-1.143,0.066-1.71,0.049c1.931,0.061,0.603,0.045-0.08-0.235
		c-4.454-1.816-9.125-2.927-13.323-5.385c-0.69-0.404-3.247-1.699-3.032-2.766c0.354-1.747,9.99-1.817,11.797-1.978
		c9.014-0.8,17.972-3.049,25.766-7.772c5.884-3.563,10.718-8.422,14.727-13.977c2.92-4.045,5.436-8.332,8.838-12.011
		c3.899-4.212,8.344-7.907,12.547-11.806c6.576-6.099,12.478-12.768,18.787-19.118c11.228-11.306,28.24-16.29,43.543-18.93
		c11.184-1.928,22.652-2.172,33.939-3.067c2.488-0.198,3.484-3.443,0.42-3.2c-24.54,1.949-49.641,2.697-71.379,15.945
		c-7.937,4.837-13.562,11.774-20.007,18.336c-5.166,5.258-10.626,10.182-16.049,15.17c-3.857,3.547-7.423,7.223-10.383,11.562
		c-3.85,5.645-7.592,11.308-12.966,15.653c-7.799,6.306-17.501,9.14-27.363,10.013c-3.713,0.33-16.093-0.014-16.777,5.54
		c-0.48,3.897,6.671,6.342,9.314,7.466c3.263,1.389,7.083,3.266,10.648,3.751c5.032,0.688,11.111-0.754,15.975-1.809
		c4.109-0.891,8.212-2.15,11.985-4.025c2.88-1.432,5.5-2.807,8.614-3.697c5.406-1.549,10.971-2.6,15.964-5.311
		c6.32-3.43,10.751-9.042,13.449-15.646c1.38-3.379,2.168-6.81,4.105-9.94c1.908-3.084,4.35-5.851,6.861-8.455
		c6.398-6.632,13.753-12.343,21.217-17.716c18.08-13.013,37.569-24.171,57.564-33.955C189.47,58.821,187.009,56.503,184.755,57.605"
		/>
	<path clip-path="url(#SVGID_2_)" fill="#989798" d="M18.324,156.145c2.226,1.452,4.859,2.586,7.323,3.079
		c-1.843-0.712-3.649-1.546-5.31-2.252C19.812,156.749,19.108,156.473,18.324,156.145"/>
	<path clip-path="url(#SVGID_2_)" fill="#EAEBEC" d="M17.253,148.146h-0.024c-0.932,0.252-1.561,0.576-1.647,1
		c-0.215,1.066,2.342,2.361,3.032,2.766c4.198,2.458,8.868,3.568,13.323,5.385c0.288,0.119,0.69,0.189,0.915,0.227l0.079-0.003
		c0.225-0.304,0.418-0.645,0.573-1.028C35.15,152.438,23.618,148.146,17.253,148.146"/>
	<path clip-path="url(#SVGID_2_)" fill="#989798" d="M17.229,148.146c-3.437,0.005-5.354,1.269-2.852,4.507
		c0.967,1.25,2.352,2.452,3.946,3.492c0.785,0.328,1.488,0.604,2.013,0.827c1.661,0.706,3.467,1.54,5.31,2.252
		c0.876,0.177,1.73,0.271,2.538,0.271c2.004,0,3.717-0.585,4.747-1.976l-0.079,0.003c-0.225-0.037-0.627-0.107-0.915-0.227
		c-4.455-1.816-9.125-2.927-13.323-5.385c-0.69-0.404-3.247-1.699-3.032-2.766C15.667,148.722,16.297,148.397,17.229,148.146"/>
	<path clip-path="url(#SVGID_2_)" fill="#D1D3D4" d="M166.717,84.163c0.884-14.554,26.942-42.639,54.352-37.719
		c19.445,3.49,18.995,26.942,13.714,37.719c-5.28,10.776-16.525,11.245-16.525-9.37c0-20.616-21.559-16.863-34.673,2.81
		C175.701,89.431,165.891,97.752,166.717,84.163"/>
	<path clip-path="url(#SVGID_2_)" d="M168.958,83.563c0.508-6.371,4.423-12.34,8.355-17.159c5.524-6.771,12.648-12.534,20.608-16.18
		c8.145-3.728,18.815-5.313,27.091-1.032c6.109,3.159,9.353,9.419,10.313,16.022c0.886,6.095,0.174,12.72-2.292,18.386
		c-1.028,2.361-2.733,5.622-5.174,6.817c-1.576,0.771-3.959-1.552-4.966-3.389c-3.797-6.918-0.377-15.646-4.675-22.247
		c-3.092-4.751-8.792-5.209-13.893-4.081c-7.958,1.759-14.719,6.943-19.831,13.13c-3.728,4.51-6.553,9.643-10.774,13.762
		c-1.077,1.052-2.646,3.141-3.701,2.156C168.571,88.398,168.888,85.268,168.958,83.563c0.021-0.506-4.432-0.014-4.482,1.2
		c-0.119,2.862-0.221,7.082,3.507,7.257c3.127,0.147,6.254-1.758,8.522-3.71c8.19-7.049,12.138-17.588,21.487-23.539
		c3.521-2.239,7.74-3.95,11.818-2.159c3.447,1.515,5.194,4.967,5.848,8.513c1.109,6.002-1.007,18.393,6.896,20.906
		c5.217,1.659,10.849-2.317,13.463-6.527c3.525-5.678,4.585-13.21,3.991-19.767c-0.664-7.319-3.993-14.522-10.759-18.022
		c-7.865-4.068-18.084-3.122-26.299-0.724c-10.075,2.94-19.239,8.749-26.511,16.285c-5.527,5.728-11.306,13.248-11.963,21.487
		C164.44,85.216,168.859,84.805,168.958,83.563"/>
	<path clip-path="url(#SVGID_2_)" fill="#D1D3D4" d="M102.992,74.796c0,0,26.191-23.196,52.382-24.267
		C131.81,43.867,102.992,65.188,102.992,74.796"/>
	<path clip-path="url(#SVGID_2_)" d="M105.039,74.695c4.151-3.666,9.841-7.635,14.913-10.77c10.389-6.42,22.122-11.773,34.482-12.38
		c0.464-0.024,4.483-1.486,2.763-1.952c-12.635-3.42-26.34,0.079-37.577,6.229c-4.916,2.69-9.626,5.964-13.531,10.009
		c-2.456,2.545-5.231,5.846-5.338,9.564c-0.025,0.891,4.441,0.246,4.482-1.2c0.088-3.054,2.452-5.878,4.412-8.001
		c3.276-3.549,7.264-6.481,11.436-8.891c9.731-5.614,21.362-8.846,32.469-5.84c0.922-0.651,1.843-1.3,2.764-1.951
		c-13.432,0.66-26.247,5.989-37.686,12.788c-6.198,3.685-12.267,7.816-17.682,12.597c-0.81,0.715,0.704,0.91,1.105,0.913
		C103.087,75.821,104.265,75.378,105.039,74.695"/>
</g>
<g>
	<defs>
		<path id="SVGID_3_" d="M1924.764,288.504c0.126,0.19,0.275,0.363,0.452,0.516c0.538,0.47,1.251,0.691,2.048,0.691
			c0.098,0,0.195-0.002,0.295-0.01c-0.589-0.46-1.133-0.968-1.621-1.524c-0.416-0.471-0.795-0.977-1.138-1.512
			C1924.775,287.282,1924.763,287.896,1924.764,288.504"/>
	</defs>
	<clipPath id="SVGID_4_">
		<use xlink:href="#SVGID_3_"  overflow="visible"/>
	</clipPath>
</g>
<g>
	<defs>
		<rect id="SVGID_5_" x="-1097" y="-1959.732" width="4389.043" height="3005.732"/>
	</defs>
	<clipPath id="SVGID_6_">
		<use xlink:href="#SVGID_5_"  overflow="visible"/>
	</clipPath>
</g>
<g>
	<path fill="#D1D3D4" d="M360.971,155.967v26.367c2.409-2.408,5.013-4.215,7.813-5.42c2.799-1.204,5.794-1.807,8.984-1.807
		c6.934,0,12.825,2.621,17.676,7.861c4.85,5.241,7.275,11.963,7.275,20.166c0,7.91-2.507,14.526-7.52,19.849
		c-5.013,5.322-10.954,7.983-17.822,7.983c-3.06,0-5.908-0.546-8.545-1.636s-5.257-2.872-7.861-5.347v5.615h-13.232v-73.633H360.971
		z M374.984,187.412c-4.199,0-7.683,1.433-10.449,4.297c-2.767,2.865-4.15,6.608-4.15,11.23c0,4.721,1.383,8.537,4.15,11.45
		c2.767,2.914,6.25,4.37,10.449,4.37c4.069,0,7.495-1.48,10.278-4.443c2.783-2.962,4.175-6.738,4.175-11.328
		c0-4.557-1.367-8.292-4.102-11.206C382.602,188.869,379.151,187.412,374.984,187.412z"/>
	<path fill="#D1D3D4" d="M438.705,175.107c5.013,0,9.725,1.254,14.136,3.76c4.411,2.507,7.853,5.908,10.327,10.205
		c2.474,4.297,3.711,8.936,3.711,13.916c0,5.014-1.245,9.701-3.735,14.063c-2.49,4.362-5.884,7.772-10.181,10.229
		s-9.033,3.687-14.209,3.687c-7.617,0-14.12-2.71-19.507-8.13c-5.388-5.42-8.081-12.003-8.081-19.751
		c0-8.301,3.043-15.218,9.131-20.752C425.635,177.517,431.771,175.107,438.705,175.107z M438.925,187.656
		c-4.141,0-7.59,1.44-10.345,4.321c-2.756,2.881-4.133,6.567-4.133,11.06c0,4.623,1.361,8.366,4.084,11.23
		c2.722,2.865,6.171,4.297,10.345,4.297c4.173,0,7.646-1.448,10.418-4.346c2.771-2.896,4.157-6.624,4.157-11.182
		c0-4.557-1.362-8.26-4.084-11.108C446.644,189.081,443.164,187.656,438.925,187.656z"/>
	<path fill="#D1D3D4" d="M474.643,176.475h11.426v6.689c1.237-2.637,2.881-4.639,4.932-6.006s4.297-2.051,6.738-2.051
		c1.725,0,3.532,0.456,5.42,1.367l-4.15,11.475c-1.563-0.781-2.849-1.172-3.857-1.172c-2.051,0-3.784,1.27-5.2,3.809
		s-2.124,7.52-2.124,14.941l0.049,2.588V229.6h-13.232V176.475z"/>
	<path fill="#D1D3D4" d="M542.27,183.896l-8.252,8.252c-3.353-3.32-6.396-4.98-9.131-4.98c-1.498,0-2.669,0.317-3.516,0.952
		c-0.847,0.635-1.27,1.425-1.27,2.368c0,0.717,0.269,1.376,0.806,1.978c0.537,0.603,1.863,1.425,3.979,2.466l4.883,2.441
		c5.143,2.539,8.675,5.127,10.596,7.764c1.92,2.637,2.881,5.729,2.881,9.277c0,4.721-1.733,8.659-5.2,11.816
		c-3.467,3.158-8.114,4.736-13.94,4.736c-7.748,0-13.933-3.027-18.555-9.082l8.203-8.936c1.563,1.823,3.394,3.296,5.493,4.419
		s3.963,1.685,5.591,1.685c1.758,0,3.174-0.423,4.248-1.27c1.074-0.846,1.611-1.822,1.611-2.93c0-2.051-1.937-4.053-5.811-6.006
		l-4.492-2.246c-8.594-4.329-12.891-9.749-12.891-16.26c0-4.199,1.619-7.788,4.858-10.767c3.239-2.979,7.381-4.468,12.427-4.468
		c3.45,0,6.697,0.757,9.741,2.271C537.574,178.892,540.153,181.064,542.27,183.896z"/>
	<path fill="#D1D3D4" d="M553.695,176.475h13.477v25.586c0,4.98,0.343,8.439,1.028,10.376c0.685,1.938,1.787,3.442,3.304,4.517
		c1.517,1.074,3.385,1.611,5.604,1.611c2.219,0,4.103-0.528,5.653-1.587c1.55-1.058,2.7-2.612,3.451-4.663
		c0.555-1.529,0.833-4.801,0.833-9.814v-26.025h13.33v22.51c0,9.277-0.732,15.625-2.197,19.043c-1.791,4.167-4.427,7.365-7.91,9.595
		c-3.483,2.229-7.91,3.345-13.281,3.345c-5.827,0-10.539-1.303-14.136-3.906c-3.597-2.604-6.128-6.233-7.593-10.889
		c-1.042-3.223-1.563-9.082-1.563-17.578V176.475z"/>
	<path fill="#D1D3D4" d="M613.852,155.967h13.33v42.41l19.629-21.902h16.74l-22.885,25.462l25.622,27.663H649.74l-22.559-24.484
		V229.6h-13.33V155.967z"/>
	<path fill="#D1D3D4" d="M679.037,215.684c2.116,0,3.922,0.741,5.42,2.222c1.497,1.481,2.246,3.28,2.246,5.396
		c0,2.116-0.749,3.923-2.246,5.42c-1.498,1.497-3.304,2.246-5.42,2.246c-2.116,0-3.923-0.749-5.42-2.246
		c-1.498-1.497-2.246-3.304-2.246-5.42c0-2.115,0.749-3.914,2.246-5.396C675.114,216.425,676.921,215.684,679.037,215.684z"/>
	<path fill="#D1D3D4" d="M712.973,176.475v5.859c2.409-2.408,5.013-4.215,7.813-5.42c2.799-1.204,5.794-1.807,8.984-1.807
		c6.934,0,12.825,2.621,17.676,7.861c4.85,5.241,7.275,11.963,7.275,20.166c0,7.91-2.507,14.526-7.52,19.849
		c-5.013,5.322-10.954,7.983-17.822,7.983c-3.06,0-5.908-0.546-8.545-1.636s-5.257-2.872-7.861-5.347v25.049H699.74v-72.559H712.973
		z M726.986,187.412c-4.199,0-7.683,1.433-10.449,4.297c-2.767,2.865-4.15,6.608-4.15,11.23c0,4.721,1.383,8.537,4.15,11.45
		c2.767,2.914,6.25,4.37,10.449,4.37c4.069,0,7.495-1.48,10.278-4.443c2.783-2.962,4.175-6.738,4.175-11.328
		c0-4.557-1.367-8.292-4.102-11.206C734.604,188.869,731.153,187.412,726.986,187.412z"/>
	<path fill="#D1D3D4" d="M764.291,155.967h13.33V229.6h-13.33V155.967z"/>
</g>
</svg>
