<?xml version="1.0" encoding="utf-8"?>
<!-- Generator: Adobe Illustrator 16.0.3, SVG Export Plug-In . SVG Version: 6.00 Build 0)  -->
<!DOCTYPE svg PUBLIC "-//W3C//DTD SVG 1.1//EN" "http://www.w3.org/Graphics/SVG/1.1/DTD/svg11.dtd">
<svg version="1.1" id="Warstwa_1" xmlns="http://www.w3.org/2000/svg" xmlns:xlink="http://www.w3.org/1999/xlink" x="0px" y="0px"
	 width="321.5px" height="314px" viewBox="0 0 321.5 314" enable-background="new 0 0 321.5 314" xml:space="preserve">
<g transform="translate(0 947.64)">
	<g transform="matrix(6.6511 0 0 6.6511 -6353.9 -295.9)">
		<circle fill="#414C25" cx="977.906" cy="-73.518" r="21.777"/>
		<circle fill="#94AD53" cx="977.906" cy="-73.518" r="17.122"/>
		<circle fill="#414C25" cx="977.906" cy="-73.518" r="11.789"/>
		<circle fill="#94AD53" cx="977.906" cy="-73.518" r="6.175"/>
		<circle fill="#1A1A1A" cx="977.906" cy="-73.518" r="2.245"/>
		<polygon fill="#94AD53" points="996.181,-90.747 997.24,-89.754 979.629,-73.249 978.57,-74.241 		"/>
		<g transform="matrix(.71625 .6759 -.71625 .6759 -535.86 -1805.8)">
			<polygon fill="#414C25" points="2338.156,194.845 2340.736,192.464 2340.736,198.317 2338.156,200.699 			"/>
			<polygon fill="#414C25" points="2338.258,194.844 2335.679,192.463 2335.679,198.316 2338.258,200.697 			"/>
		</g>
		<polygon fill="#1A1A1A" points="999.311,-94.85 1000.63,-93.603 978.705,-72.859 977.386,-74.107 		"/>
	</g>
</g>
<path fill="none" d="M88.749,241.175"/>
</svg>
